M48
; DRILL file {KiCad 7.0.10} date Sun Feb 11 11:32:37 2024
; FORMAT={-:-/ absolute / inch / decimal}
; #@! TF.CreationDate,2024-02-11T11:32:37+13:00
; #@! TF.GenerationSoftware,Kicad,Pcbnew,7.0.10
; #@! TF.FileFunction,Plated,1,2,PTH
FMAT,2
INCH
; #@! TA.AperFunction,Plated,PTH,ComponentDrill
T1C0.0394
; #@! TA.AperFunction,Plated,PTH,ComponentDrill
T2C0.0472
; #@! TA.AperFunction,Plated,PTH,ComponentDrill
T3C0.0610
; #@! TA.AperFunction,Plated,PTH,ComponentDrill
T4C0.0690
; #@! TA.AperFunction,Plated,PTH,ComponentDrill
T5C0.1063
; #@! TA.AperFunction,Plated,PTH,ComponentDrill
T6C0.1610
%
G90
G05
T1
X3.677Y-4.537
X3.777Y-4.537
X3.877Y-4.537
X3.977Y-4.537
X4.037Y-6.437
X4.077Y-4.537
X4.137Y-6.437
X4.177Y-4.537
X4.237Y-6.437
X4.277Y-4.537
X4.337Y-6.437
X4.377Y-4.537
X4.437Y-6.437
X4.477Y-4.537
X4.537Y-6.437
X4.577Y-4.537
X4.637Y-6.437
X4.737Y-4.537
X4.737Y-6.437
X4.837Y-4.537
X4.937Y-4.537
X4.937Y-6.437
X5.037Y-4.537
X5.037Y-6.437
X5.137Y-4.537
X5.137Y-6.437
X5.237Y-4.537
X5.237Y-6.437
X5.337Y-4.537
X5.337Y-6.437
X5.437Y-4.537
X5.437Y-6.437
T2
X3.437Y-6.237
X3.537Y-6.237
X3.637Y-6.237
X3.737Y-6.237
X3.837Y-6.237
X3.937Y-6.237
X4.037Y-6.237
X4.137Y-6.237
X4.237Y-6.237
X4.337Y-6.237
X4.437Y-6.237
X4.537Y-6.237
X4.637Y-6.237
X4.737Y-6.237
X4.837Y-6.237
X4.937Y-6.237
X5.037Y-6.237
X5.137Y-6.237
X5.237Y-6.237
X5.337Y-6.237
T3
X3.387Y-6.937
X3.637Y-6.837
X4.327Y-6.937
X4.577Y-6.837
X5.227Y-6.937
X5.477Y-6.837
T4
X3.337Y-7.037
X3.737Y-7.037
X4.277Y-7.037
X4.677Y-7.037
X5.177Y-7.037
X5.577Y-7.037
T5
X3.0091Y-4.2803
X3.0091Y-6.237
X5.765Y-4.2803
X5.765Y-6.237
T6
X3.537Y-7.037
X4.477Y-7.037
X5.377Y-7.037
M30
