%TF.GenerationSoftware,KiCad,Pcbnew,7.0.10*%
%TF.CreationDate,2024-02-11T11:33:22+13:00*%
%TF.ProjectId,conway_proj,636f6e77-6179-45f7-9072-6f6a2e6b6963,rev?*%
%TF.SameCoordinates,Original*%
%TF.FileFunction,Drillmap*%
%TF.FilePolarity,Positive*%
%FSLAX45Y45*%
G04 Gerber Fmt 4.5, Leading zero omitted, Abs format (unit mm)*
G04 Created by KiCad (PCBNEW 7.0.10) date 2024-02-11 11:33:22*
%MOMM*%
%LPD*%
G01*
G04 APERTURE LIST*
%ADD10C,0.150000*%
%ADD11C,0.200000*%
%ADD12C,0.320000*%
G04 APERTURE END LIST*
D10*
X15334000Y-10254000D02*
G75*
G03*
X15080000Y-10000000I-254000J0D01*
G01*
X15080000Y-19144000D02*
G75*
G03*
X15334000Y-18890000I0J254000D01*
G01*
X6952000Y-18890000D02*
X6952000Y-10254000D01*
X15334000Y-10254000D02*
X15334000Y-18890000D01*
X15080000Y-19144000D02*
X7206000Y-19144000D01*
X7206000Y-10000000D02*
X15080000Y-10000000D01*
X6952000Y-18890000D02*
G75*
G03*
X7206000Y-19144000I254000J0D01*
G01*
X7206000Y-10000001D02*
G75*
G03*
X6952000Y-10254000I0J-254000D01*
G01*
D11*
D12*
X8697000Y-16190000D02*
X9017000Y-16510000D01*
X9017000Y-16190000D02*
X8697000Y-16510000D01*
X8824000Y-11364000D02*
X9144000Y-11684000D01*
X9144000Y-11364000D02*
X8824000Y-11684000D01*
X13904000Y-12888000D02*
X14224000Y-13208000D01*
X14224000Y-12888000D02*
X13904000Y-13208000D01*
X13904000Y-15682000D02*
X14224000Y-16002000D01*
X14224000Y-15682000D02*
X13904000Y-16002000D01*
D11*
X7205277Y-19462984D02*
X7205277Y-19262984D01*
X7205277Y-19262984D02*
X7252896Y-19262984D01*
X7252896Y-19262984D02*
X7281467Y-19272508D01*
X7281467Y-19272508D02*
X7300515Y-19291555D01*
X7300515Y-19291555D02*
X7310039Y-19310603D01*
X7310039Y-19310603D02*
X7319562Y-19348698D01*
X7319562Y-19348698D02*
X7319562Y-19377270D01*
X7319562Y-19377270D02*
X7310039Y-19415365D01*
X7310039Y-19415365D02*
X7300515Y-19434412D01*
X7300515Y-19434412D02*
X7281467Y-19453460D01*
X7281467Y-19453460D02*
X7252896Y-19462984D01*
X7252896Y-19462984D02*
X7205277Y-19462984D01*
X7405277Y-19462984D02*
X7405277Y-19329651D01*
X7405277Y-19367746D02*
X7414800Y-19348698D01*
X7414800Y-19348698D02*
X7424324Y-19339174D01*
X7424324Y-19339174D02*
X7443372Y-19329651D01*
X7443372Y-19329651D02*
X7462420Y-19329651D01*
X7529086Y-19462984D02*
X7529086Y-19329651D01*
X7529086Y-19262984D02*
X7519562Y-19272508D01*
X7519562Y-19272508D02*
X7529086Y-19282032D01*
X7529086Y-19282032D02*
X7538610Y-19272508D01*
X7538610Y-19272508D02*
X7529086Y-19262984D01*
X7529086Y-19262984D02*
X7529086Y-19282032D01*
X7652896Y-19462984D02*
X7633848Y-19453460D01*
X7633848Y-19453460D02*
X7624324Y-19434412D01*
X7624324Y-19434412D02*
X7624324Y-19262984D01*
X7757658Y-19462984D02*
X7738610Y-19453460D01*
X7738610Y-19453460D02*
X7729086Y-19434412D01*
X7729086Y-19434412D02*
X7729086Y-19262984D01*
X7986229Y-19462984D02*
X7986229Y-19262984D01*
X7986229Y-19262984D02*
X8052896Y-19405841D01*
X8052896Y-19405841D02*
X8119562Y-19262984D01*
X8119562Y-19262984D02*
X8119562Y-19462984D01*
X8300515Y-19462984D02*
X8300515Y-19358222D01*
X8300515Y-19358222D02*
X8290991Y-19339174D01*
X8290991Y-19339174D02*
X8271943Y-19329651D01*
X8271943Y-19329651D02*
X8233848Y-19329651D01*
X8233848Y-19329651D02*
X8214800Y-19339174D01*
X8300515Y-19453460D02*
X8281467Y-19462984D01*
X8281467Y-19462984D02*
X8233848Y-19462984D01*
X8233848Y-19462984D02*
X8214800Y-19453460D01*
X8214800Y-19453460D02*
X8205277Y-19434412D01*
X8205277Y-19434412D02*
X8205277Y-19415365D01*
X8205277Y-19415365D02*
X8214800Y-19396317D01*
X8214800Y-19396317D02*
X8233848Y-19386793D01*
X8233848Y-19386793D02*
X8281467Y-19386793D01*
X8281467Y-19386793D02*
X8300515Y-19377270D01*
X8395753Y-19329651D02*
X8395753Y-19529651D01*
X8395753Y-19339174D02*
X8414801Y-19329651D01*
X8414801Y-19329651D02*
X8452896Y-19329651D01*
X8452896Y-19329651D02*
X8471943Y-19339174D01*
X8471943Y-19339174D02*
X8481467Y-19348698D01*
X8481467Y-19348698D02*
X8490991Y-19367746D01*
X8490991Y-19367746D02*
X8490991Y-19424889D01*
X8490991Y-19424889D02*
X8481467Y-19443936D01*
X8481467Y-19443936D02*
X8471943Y-19453460D01*
X8471943Y-19453460D02*
X8452896Y-19462984D01*
X8452896Y-19462984D02*
X8414801Y-19462984D01*
X8414801Y-19462984D02*
X8395753Y-19453460D01*
X8576705Y-19443936D02*
X8586229Y-19453460D01*
X8586229Y-19453460D02*
X8576705Y-19462984D01*
X8576705Y-19462984D02*
X8567182Y-19453460D01*
X8567182Y-19453460D02*
X8576705Y-19443936D01*
X8576705Y-19443936D02*
X8576705Y-19462984D01*
X8576705Y-19339174D02*
X8586229Y-19348698D01*
X8586229Y-19348698D02*
X8576705Y-19358222D01*
X8576705Y-19358222D02*
X8567182Y-19348698D01*
X8567182Y-19348698D02*
X8576705Y-19339174D01*
X8576705Y-19339174D02*
X8576705Y-19358222D01*
X6744500Y-19691500D02*
X6944500Y-19891500D01*
X6944500Y-19691500D02*
X6744500Y-19891500D01*
X7186229Y-19682984D02*
X7310039Y-19682984D01*
X7310039Y-19682984D02*
X7243372Y-19759174D01*
X7243372Y-19759174D02*
X7271943Y-19759174D01*
X7271943Y-19759174D02*
X7290991Y-19768698D01*
X7290991Y-19768698D02*
X7300515Y-19778222D01*
X7300515Y-19778222D02*
X7310039Y-19797270D01*
X7310039Y-19797270D02*
X7310039Y-19844889D01*
X7310039Y-19844889D02*
X7300515Y-19863936D01*
X7300515Y-19863936D02*
X7290991Y-19873460D01*
X7290991Y-19873460D02*
X7271943Y-19882984D01*
X7271943Y-19882984D02*
X7214800Y-19882984D01*
X7214800Y-19882984D02*
X7195753Y-19873460D01*
X7195753Y-19873460D02*
X7186229Y-19863936D01*
X7395753Y-19863936D02*
X7405277Y-19873460D01*
X7405277Y-19873460D02*
X7395753Y-19882984D01*
X7395753Y-19882984D02*
X7386229Y-19873460D01*
X7386229Y-19873460D02*
X7395753Y-19863936D01*
X7395753Y-19863936D02*
X7395753Y-19882984D01*
X7481467Y-19702032D02*
X7490991Y-19692508D01*
X7490991Y-19692508D02*
X7510039Y-19682984D01*
X7510039Y-19682984D02*
X7557658Y-19682984D01*
X7557658Y-19682984D02*
X7576705Y-19692508D01*
X7576705Y-19692508D02*
X7586229Y-19702032D01*
X7586229Y-19702032D02*
X7595753Y-19721079D01*
X7595753Y-19721079D02*
X7595753Y-19740127D01*
X7595753Y-19740127D02*
X7586229Y-19768698D01*
X7586229Y-19768698D02*
X7471943Y-19882984D01*
X7471943Y-19882984D02*
X7595753Y-19882984D01*
X7719562Y-19682984D02*
X7738610Y-19682984D01*
X7738610Y-19682984D02*
X7757658Y-19692508D01*
X7757658Y-19692508D02*
X7767181Y-19702032D01*
X7767181Y-19702032D02*
X7776705Y-19721079D01*
X7776705Y-19721079D02*
X7786229Y-19759174D01*
X7786229Y-19759174D02*
X7786229Y-19806793D01*
X7786229Y-19806793D02*
X7776705Y-19844889D01*
X7776705Y-19844889D02*
X7767181Y-19863936D01*
X7767181Y-19863936D02*
X7757658Y-19873460D01*
X7757658Y-19873460D02*
X7738610Y-19882984D01*
X7738610Y-19882984D02*
X7719562Y-19882984D01*
X7719562Y-19882984D02*
X7700515Y-19873460D01*
X7700515Y-19873460D02*
X7690991Y-19863936D01*
X7690991Y-19863936D02*
X7681467Y-19844889D01*
X7681467Y-19844889D02*
X7671943Y-19806793D01*
X7671943Y-19806793D02*
X7671943Y-19759174D01*
X7671943Y-19759174D02*
X7681467Y-19721079D01*
X7681467Y-19721079D02*
X7690991Y-19702032D01*
X7690991Y-19702032D02*
X7700515Y-19692508D01*
X7700515Y-19692508D02*
X7719562Y-19682984D01*
X7910039Y-19682984D02*
X7929086Y-19682984D01*
X7929086Y-19682984D02*
X7948134Y-19692508D01*
X7948134Y-19692508D02*
X7957658Y-19702032D01*
X7957658Y-19702032D02*
X7967181Y-19721079D01*
X7967181Y-19721079D02*
X7976705Y-19759174D01*
X7976705Y-19759174D02*
X7976705Y-19806793D01*
X7976705Y-19806793D02*
X7967181Y-19844889D01*
X7967181Y-19844889D02*
X7957658Y-19863936D01*
X7957658Y-19863936D02*
X7948134Y-19873460D01*
X7948134Y-19873460D02*
X7929086Y-19882984D01*
X7929086Y-19882984D02*
X7910039Y-19882984D01*
X7910039Y-19882984D02*
X7890991Y-19873460D01*
X7890991Y-19873460D02*
X7881467Y-19863936D01*
X7881467Y-19863936D02*
X7871943Y-19844889D01*
X7871943Y-19844889D02*
X7862420Y-19806793D01*
X7862420Y-19806793D02*
X7862420Y-19759174D01*
X7862420Y-19759174D02*
X7871943Y-19721079D01*
X7871943Y-19721079D02*
X7881467Y-19702032D01*
X7881467Y-19702032D02*
X7890991Y-19692508D01*
X7890991Y-19692508D02*
X7910039Y-19682984D01*
X8062420Y-19882984D02*
X8062420Y-19749651D01*
X8062420Y-19768698D02*
X8071943Y-19759174D01*
X8071943Y-19759174D02*
X8090991Y-19749651D01*
X8090991Y-19749651D02*
X8119562Y-19749651D01*
X8119562Y-19749651D02*
X8138610Y-19759174D01*
X8138610Y-19759174D02*
X8148134Y-19778222D01*
X8148134Y-19778222D02*
X8148134Y-19882984D01*
X8148134Y-19778222D02*
X8157658Y-19759174D01*
X8157658Y-19759174D02*
X8176705Y-19749651D01*
X8176705Y-19749651D02*
X8205277Y-19749651D01*
X8205277Y-19749651D02*
X8224324Y-19759174D01*
X8224324Y-19759174D02*
X8233848Y-19778222D01*
X8233848Y-19778222D02*
X8233848Y-19882984D01*
X8329086Y-19882984D02*
X8329086Y-19749651D01*
X8329086Y-19768698D02*
X8338610Y-19759174D01*
X8338610Y-19759174D02*
X8357658Y-19749651D01*
X8357658Y-19749651D02*
X8386229Y-19749651D01*
X8386229Y-19749651D02*
X8405277Y-19759174D01*
X8405277Y-19759174D02*
X8414801Y-19778222D01*
X8414801Y-19778222D02*
X8414801Y-19882984D01*
X8414801Y-19778222D02*
X8424324Y-19759174D01*
X8424324Y-19759174D02*
X8443372Y-19749651D01*
X8443372Y-19749651D02*
X8471943Y-19749651D01*
X8471943Y-19749651D02*
X8490991Y-19759174D01*
X8490991Y-19759174D02*
X8500515Y-19778222D01*
X8500515Y-19778222D02*
X8500515Y-19882984D01*
X8890991Y-19673460D02*
X8719563Y-19930603D01*
X9148134Y-19682984D02*
X9167182Y-19682984D01*
X9167182Y-19682984D02*
X9186229Y-19692508D01*
X9186229Y-19692508D02*
X9195753Y-19702032D01*
X9195753Y-19702032D02*
X9205277Y-19721079D01*
X9205277Y-19721079D02*
X9214801Y-19759174D01*
X9214801Y-19759174D02*
X9214801Y-19806793D01*
X9214801Y-19806793D02*
X9205277Y-19844889D01*
X9205277Y-19844889D02*
X9195753Y-19863936D01*
X9195753Y-19863936D02*
X9186229Y-19873460D01*
X9186229Y-19873460D02*
X9167182Y-19882984D01*
X9167182Y-19882984D02*
X9148134Y-19882984D01*
X9148134Y-19882984D02*
X9129086Y-19873460D01*
X9129086Y-19873460D02*
X9119563Y-19863936D01*
X9119563Y-19863936D02*
X9110039Y-19844889D01*
X9110039Y-19844889D02*
X9100515Y-19806793D01*
X9100515Y-19806793D02*
X9100515Y-19759174D01*
X9100515Y-19759174D02*
X9110039Y-19721079D01*
X9110039Y-19721079D02*
X9119563Y-19702032D01*
X9119563Y-19702032D02*
X9129086Y-19692508D01*
X9129086Y-19692508D02*
X9148134Y-19682984D01*
X9300515Y-19863936D02*
X9310039Y-19873460D01*
X9310039Y-19873460D02*
X9300515Y-19882984D01*
X9300515Y-19882984D02*
X9290991Y-19873460D01*
X9290991Y-19873460D02*
X9300515Y-19863936D01*
X9300515Y-19863936D02*
X9300515Y-19882984D01*
X9500515Y-19882984D02*
X9386229Y-19882984D01*
X9443372Y-19882984D02*
X9443372Y-19682984D01*
X9443372Y-19682984D02*
X9424325Y-19711555D01*
X9424325Y-19711555D02*
X9405277Y-19730603D01*
X9405277Y-19730603D02*
X9386229Y-19740127D01*
X9576706Y-19702032D02*
X9586229Y-19692508D01*
X9586229Y-19692508D02*
X9605277Y-19682984D01*
X9605277Y-19682984D02*
X9652896Y-19682984D01*
X9652896Y-19682984D02*
X9671944Y-19692508D01*
X9671944Y-19692508D02*
X9681467Y-19702032D01*
X9681467Y-19702032D02*
X9690991Y-19721079D01*
X9690991Y-19721079D02*
X9690991Y-19740127D01*
X9690991Y-19740127D02*
X9681467Y-19768698D01*
X9681467Y-19768698D02*
X9567182Y-19882984D01*
X9567182Y-19882984D02*
X9690991Y-19882984D01*
X9862420Y-19682984D02*
X9824325Y-19682984D01*
X9824325Y-19682984D02*
X9805277Y-19692508D01*
X9805277Y-19692508D02*
X9795753Y-19702032D01*
X9795753Y-19702032D02*
X9776706Y-19730603D01*
X9776706Y-19730603D02*
X9767182Y-19768698D01*
X9767182Y-19768698D02*
X9767182Y-19844889D01*
X9767182Y-19844889D02*
X9776706Y-19863936D01*
X9776706Y-19863936D02*
X9786229Y-19873460D01*
X9786229Y-19873460D02*
X9805277Y-19882984D01*
X9805277Y-19882984D02*
X9843372Y-19882984D01*
X9843372Y-19882984D02*
X9862420Y-19873460D01*
X9862420Y-19873460D02*
X9871944Y-19863936D01*
X9871944Y-19863936D02*
X9881467Y-19844889D01*
X9881467Y-19844889D02*
X9881467Y-19797270D01*
X9881467Y-19797270D02*
X9871944Y-19778222D01*
X9871944Y-19778222D02*
X9862420Y-19768698D01*
X9862420Y-19768698D02*
X9843372Y-19759174D01*
X9843372Y-19759174D02*
X9805277Y-19759174D01*
X9805277Y-19759174D02*
X9786229Y-19768698D01*
X9786229Y-19768698D02*
X9776706Y-19778222D01*
X9776706Y-19778222D02*
X9767182Y-19797270D01*
X10005277Y-19682984D02*
X10024325Y-19682984D01*
X10024325Y-19682984D02*
X10043372Y-19692508D01*
X10043372Y-19692508D02*
X10052896Y-19702032D01*
X10052896Y-19702032D02*
X10062420Y-19721079D01*
X10062420Y-19721079D02*
X10071944Y-19759174D01*
X10071944Y-19759174D02*
X10071944Y-19806793D01*
X10071944Y-19806793D02*
X10062420Y-19844889D01*
X10062420Y-19844889D02*
X10052896Y-19863936D01*
X10052896Y-19863936D02*
X10043372Y-19873460D01*
X10043372Y-19873460D02*
X10024325Y-19882984D01*
X10024325Y-19882984D02*
X10005277Y-19882984D01*
X10005277Y-19882984D02*
X9986229Y-19873460D01*
X9986229Y-19873460D02*
X9976706Y-19863936D01*
X9976706Y-19863936D02*
X9967182Y-19844889D01*
X9967182Y-19844889D02*
X9957658Y-19806793D01*
X9957658Y-19806793D02*
X9957658Y-19759174D01*
X9957658Y-19759174D02*
X9967182Y-19721079D01*
X9967182Y-19721079D02*
X9976706Y-19702032D01*
X9976706Y-19702032D02*
X9986229Y-19692508D01*
X9986229Y-19692508D02*
X10005277Y-19682984D01*
X10148134Y-19682984D02*
X10148134Y-19721079D01*
X10224325Y-19682984D02*
X10224325Y-19721079D01*
X10519563Y-19959174D02*
X10510039Y-19949651D01*
X10510039Y-19949651D02*
X10490991Y-19921079D01*
X10490991Y-19921079D02*
X10481468Y-19902032D01*
X10481468Y-19902032D02*
X10471944Y-19873460D01*
X10471944Y-19873460D02*
X10462420Y-19825841D01*
X10462420Y-19825841D02*
X10462420Y-19787746D01*
X10462420Y-19787746D02*
X10471944Y-19740127D01*
X10471944Y-19740127D02*
X10481468Y-19711555D01*
X10481468Y-19711555D02*
X10490991Y-19692508D01*
X10490991Y-19692508D02*
X10510039Y-19663936D01*
X10510039Y-19663936D02*
X10519563Y-19654412D01*
X10681468Y-19749651D02*
X10681468Y-19882984D01*
X10633848Y-19673460D02*
X10586229Y-19816317D01*
X10586229Y-19816317D02*
X10710039Y-19816317D01*
X10938610Y-19882984D02*
X10938610Y-19682984D01*
X11024325Y-19882984D02*
X11024325Y-19778222D01*
X11024325Y-19778222D02*
X11014801Y-19759174D01*
X11014801Y-19759174D02*
X10995753Y-19749651D01*
X10995753Y-19749651D02*
X10967182Y-19749651D01*
X10967182Y-19749651D02*
X10948134Y-19759174D01*
X10948134Y-19759174D02*
X10938610Y-19768698D01*
X11148134Y-19882984D02*
X11129087Y-19873460D01*
X11129087Y-19873460D02*
X11119563Y-19863936D01*
X11119563Y-19863936D02*
X11110039Y-19844889D01*
X11110039Y-19844889D02*
X11110039Y-19787746D01*
X11110039Y-19787746D02*
X11119563Y-19768698D01*
X11119563Y-19768698D02*
X11129087Y-19759174D01*
X11129087Y-19759174D02*
X11148134Y-19749651D01*
X11148134Y-19749651D02*
X11176706Y-19749651D01*
X11176706Y-19749651D02*
X11195753Y-19759174D01*
X11195753Y-19759174D02*
X11205277Y-19768698D01*
X11205277Y-19768698D02*
X11214801Y-19787746D01*
X11214801Y-19787746D02*
X11214801Y-19844889D01*
X11214801Y-19844889D02*
X11205277Y-19863936D01*
X11205277Y-19863936D02*
X11195753Y-19873460D01*
X11195753Y-19873460D02*
X11176706Y-19882984D01*
X11176706Y-19882984D02*
X11148134Y-19882984D01*
X11329087Y-19882984D02*
X11310039Y-19873460D01*
X11310039Y-19873460D02*
X11300515Y-19854412D01*
X11300515Y-19854412D02*
X11300515Y-19682984D01*
X11481468Y-19873460D02*
X11462420Y-19882984D01*
X11462420Y-19882984D02*
X11424325Y-19882984D01*
X11424325Y-19882984D02*
X11405277Y-19873460D01*
X11405277Y-19873460D02*
X11395753Y-19854412D01*
X11395753Y-19854412D02*
X11395753Y-19778222D01*
X11395753Y-19778222D02*
X11405277Y-19759174D01*
X11405277Y-19759174D02*
X11424325Y-19749651D01*
X11424325Y-19749651D02*
X11462420Y-19749651D01*
X11462420Y-19749651D02*
X11481468Y-19759174D01*
X11481468Y-19759174D02*
X11490991Y-19778222D01*
X11490991Y-19778222D02*
X11490991Y-19797270D01*
X11490991Y-19797270D02*
X11395753Y-19816317D01*
X11567182Y-19873460D02*
X11586229Y-19882984D01*
X11586229Y-19882984D02*
X11624325Y-19882984D01*
X11624325Y-19882984D02*
X11643372Y-19873460D01*
X11643372Y-19873460D02*
X11652896Y-19854412D01*
X11652896Y-19854412D02*
X11652896Y-19844889D01*
X11652896Y-19844889D02*
X11643372Y-19825841D01*
X11643372Y-19825841D02*
X11624325Y-19816317D01*
X11624325Y-19816317D02*
X11595753Y-19816317D01*
X11595753Y-19816317D02*
X11576706Y-19806793D01*
X11576706Y-19806793D02*
X11567182Y-19787746D01*
X11567182Y-19787746D02*
X11567182Y-19778222D01*
X11567182Y-19778222D02*
X11576706Y-19759174D01*
X11576706Y-19759174D02*
X11595753Y-19749651D01*
X11595753Y-19749651D02*
X11624325Y-19749651D01*
X11624325Y-19749651D02*
X11643372Y-19759174D01*
X11719563Y-19959174D02*
X11729087Y-19949651D01*
X11729087Y-19949651D02*
X11748134Y-19921079D01*
X11748134Y-19921079D02*
X11757658Y-19902032D01*
X11757658Y-19902032D02*
X11767182Y-19873460D01*
X11767182Y-19873460D02*
X11776706Y-19825841D01*
X11776706Y-19825841D02*
X11776706Y-19787746D01*
X11776706Y-19787746D02*
X11767182Y-19740127D01*
X11767182Y-19740127D02*
X11757658Y-19711555D01*
X11757658Y-19711555D02*
X11748134Y-19692508D01*
X11748134Y-19692508D02*
X11729087Y-19663936D01*
X11729087Y-19663936D02*
X11719563Y-19654412D01*
X12081468Y-19959174D02*
X12071944Y-19949651D01*
X12071944Y-19949651D02*
X12052896Y-19921079D01*
X12052896Y-19921079D02*
X12043372Y-19902032D01*
X12043372Y-19902032D02*
X12033849Y-19873460D01*
X12033849Y-19873460D02*
X12024325Y-19825841D01*
X12024325Y-19825841D02*
X12024325Y-19787746D01*
X12024325Y-19787746D02*
X12033849Y-19740127D01*
X12033849Y-19740127D02*
X12043372Y-19711555D01*
X12043372Y-19711555D02*
X12052896Y-19692508D01*
X12052896Y-19692508D02*
X12071944Y-19663936D01*
X12071944Y-19663936D02*
X12081468Y-19654412D01*
X12157658Y-19749651D02*
X12157658Y-19882984D01*
X12157658Y-19768698D02*
X12167182Y-19759174D01*
X12167182Y-19759174D02*
X12186229Y-19749651D01*
X12186229Y-19749651D02*
X12214801Y-19749651D01*
X12214801Y-19749651D02*
X12233849Y-19759174D01*
X12233849Y-19759174D02*
X12243372Y-19778222D01*
X12243372Y-19778222D02*
X12243372Y-19882984D01*
X12367182Y-19882984D02*
X12348134Y-19873460D01*
X12348134Y-19873460D02*
X12338610Y-19863936D01*
X12338610Y-19863936D02*
X12329087Y-19844889D01*
X12329087Y-19844889D02*
X12329087Y-19787746D01*
X12329087Y-19787746D02*
X12338610Y-19768698D01*
X12338610Y-19768698D02*
X12348134Y-19759174D01*
X12348134Y-19759174D02*
X12367182Y-19749651D01*
X12367182Y-19749651D02*
X12395753Y-19749651D01*
X12395753Y-19749651D02*
X12414801Y-19759174D01*
X12414801Y-19759174D02*
X12424325Y-19768698D01*
X12424325Y-19768698D02*
X12433849Y-19787746D01*
X12433849Y-19787746D02*
X12433849Y-19844889D01*
X12433849Y-19844889D02*
X12424325Y-19863936D01*
X12424325Y-19863936D02*
X12414801Y-19873460D01*
X12414801Y-19873460D02*
X12395753Y-19882984D01*
X12395753Y-19882984D02*
X12367182Y-19882984D01*
X12490991Y-19749651D02*
X12567182Y-19749651D01*
X12519563Y-19682984D02*
X12519563Y-19854412D01*
X12519563Y-19854412D02*
X12529087Y-19873460D01*
X12529087Y-19873460D02*
X12548134Y-19882984D01*
X12548134Y-19882984D02*
X12567182Y-19882984D01*
X12786230Y-19749651D02*
X12786230Y-19949651D01*
X12786230Y-19759174D02*
X12805277Y-19749651D01*
X12805277Y-19749651D02*
X12843372Y-19749651D01*
X12843372Y-19749651D02*
X12862420Y-19759174D01*
X12862420Y-19759174D02*
X12871944Y-19768698D01*
X12871944Y-19768698D02*
X12881468Y-19787746D01*
X12881468Y-19787746D02*
X12881468Y-19844889D01*
X12881468Y-19844889D02*
X12871944Y-19863936D01*
X12871944Y-19863936D02*
X12862420Y-19873460D01*
X12862420Y-19873460D02*
X12843372Y-19882984D01*
X12843372Y-19882984D02*
X12805277Y-19882984D01*
X12805277Y-19882984D02*
X12786230Y-19873460D01*
X12995753Y-19882984D02*
X12976706Y-19873460D01*
X12976706Y-19873460D02*
X12967182Y-19854412D01*
X12967182Y-19854412D02*
X12967182Y-19682984D01*
X13157658Y-19882984D02*
X13157658Y-19778222D01*
X13157658Y-19778222D02*
X13148134Y-19759174D01*
X13148134Y-19759174D02*
X13129087Y-19749651D01*
X13129087Y-19749651D02*
X13090991Y-19749651D01*
X13090991Y-19749651D02*
X13071944Y-19759174D01*
X13157658Y-19873460D02*
X13138611Y-19882984D01*
X13138611Y-19882984D02*
X13090991Y-19882984D01*
X13090991Y-19882984D02*
X13071944Y-19873460D01*
X13071944Y-19873460D02*
X13062420Y-19854412D01*
X13062420Y-19854412D02*
X13062420Y-19835365D01*
X13062420Y-19835365D02*
X13071944Y-19816317D01*
X13071944Y-19816317D02*
X13090991Y-19806793D01*
X13090991Y-19806793D02*
X13138611Y-19806793D01*
X13138611Y-19806793D02*
X13157658Y-19797270D01*
X13224325Y-19749651D02*
X13300515Y-19749651D01*
X13252896Y-19682984D02*
X13252896Y-19854412D01*
X13252896Y-19854412D02*
X13262420Y-19873460D01*
X13262420Y-19873460D02*
X13281468Y-19882984D01*
X13281468Y-19882984D02*
X13300515Y-19882984D01*
X13443372Y-19873460D02*
X13424325Y-19882984D01*
X13424325Y-19882984D02*
X13386230Y-19882984D01*
X13386230Y-19882984D02*
X13367182Y-19873460D01*
X13367182Y-19873460D02*
X13357658Y-19854412D01*
X13357658Y-19854412D02*
X13357658Y-19778222D01*
X13357658Y-19778222D02*
X13367182Y-19759174D01*
X13367182Y-19759174D02*
X13386230Y-19749651D01*
X13386230Y-19749651D02*
X13424325Y-19749651D01*
X13424325Y-19749651D02*
X13443372Y-19759174D01*
X13443372Y-19759174D02*
X13452896Y-19778222D01*
X13452896Y-19778222D02*
X13452896Y-19797270D01*
X13452896Y-19797270D02*
X13357658Y-19816317D01*
X13624325Y-19882984D02*
X13624325Y-19682984D01*
X13624325Y-19873460D02*
X13605277Y-19882984D01*
X13605277Y-19882984D02*
X13567182Y-19882984D01*
X13567182Y-19882984D02*
X13548134Y-19873460D01*
X13548134Y-19873460D02*
X13538611Y-19863936D01*
X13538611Y-19863936D02*
X13529087Y-19844889D01*
X13529087Y-19844889D02*
X13529087Y-19787746D01*
X13529087Y-19787746D02*
X13538611Y-19768698D01*
X13538611Y-19768698D02*
X13548134Y-19759174D01*
X13548134Y-19759174D02*
X13567182Y-19749651D01*
X13567182Y-19749651D02*
X13605277Y-19749651D01*
X13605277Y-19749651D02*
X13624325Y-19759174D01*
X13700515Y-19959174D02*
X13710039Y-19949651D01*
X13710039Y-19949651D02*
X13729087Y-19921079D01*
X13729087Y-19921079D02*
X13738611Y-19902032D01*
X13738611Y-19902032D02*
X13748134Y-19873460D01*
X13748134Y-19873460D02*
X13757658Y-19825841D01*
X13757658Y-19825841D02*
X13757658Y-19787746D01*
X13757658Y-19787746D02*
X13748134Y-19740127D01*
X13748134Y-19740127D02*
X13738611Y-19711555D01*
X13738611Y-19711555D02*
X13729087Y-19692508D01*
X13729087Y-19692508D02*
X13710039Y-19663936D01*
X13710039Y-19663936D02*
X13700515Y-19654412D01*
M02*
