%TF.GenerationSoftware,KiCad,Pcbnew,7.0.7-7.0.7~ubuntu22.04.1*%
%TF.CreationDate,2023-10-18T17:55:42+02:00*%
%TF.ProjectId,conway_proj,636f6e77-6179-45f7-9072-6f6a2e6b6963,rev?*%
%TF.SameCoordinates,Original*%
%TF.FileFunction,Legend,Top*%
%TF.FilePolarity,Positive*%
%FSLAX46Y46*%
G04 Gerber Fmt 4.6, Leading zero omitted, Abs format (unit mm)*
G04 Created by KiCad (PCBNEW 7.0.7-7.0.7~ubuntu22.04.1) date 2023-10-18 17:55:42*
%MOMM*%
%LPD*%
G01*
G04 APERTURE LIST*
%ADD10C,0.150000*%
%ADD11C,0.120000*%
%ADD12C,0.100000*%
%ADD13R,1.700000X1.700000*%
%ADD14O,1.700000X1.700000*%
%ADD15C,3.200000*%
%ADD16R,1.800000X2.500000*%
%ADD17O,1.800000X2.500000*%
G04 APERTURE END LIST*
D10*
X73154819Y-160034285D02*
X72154819Y-160034285D01*
X72154819Y-160034285D02*
X72154819Y-159796190D01*
X72154819Y-159796190D02*
X72202438Y-159653333D01*
X72202438Y-159653333D02*
X72297676Y-159558095D01*
X72297676Y-159558095D02*
X72392914Y-159510476D01*
X72392914Y-159510476D02*
X72583390Y-159462857D01*
X72583390Y-159462857D02*
X72726247Y-159462857D01*
X72726247Y-159462857D02*
X72916723Y-159510476D01*
X72916723Y-159510476D02*
X73011961Y-159558095D01*
X73011961Y-159558095D02*
X73107200Y-159653333D01*
X73107200Y-159653333D02*
X73154819Y-159796190D01*
X73154819Y-159796190D02*
X73154819Y-160034285D01*
X73107200Y-159081904D02*
X73154819Y-158939047D01*
X73154819Y-158939047D02*
X73154819Y-158700952D01*
X73154819Y-158700952D02*
X73107200Y-158605714D01*
X73107200Y-158605714D02*
X73059580Y-158558095D01*
X73059580Y-158558095D02*
X72964342Y-158510476D01*
X72964342Y-158510476D02*
X72869104Y-158510476D01*
X72869104Y-158510476D02*
X72773866Y-158558095D01*
X72773866Y-158558095D02*
X72726247Y-158605714D01*
X72726247Y-158605714D02*
X72678628Y-158700952D01*
X72678628Y-158700952D02*
X72631009Y-158891428D01*
X72631009Y-158891428D02*
X72583390Y-158986666D01*
X72583390Y-158986666D02*
X72535771Y-159034285D01*
X72535771Y-159034285D02*
X72440533Y-159081904D01*
X72440533Y-159081904D02*
X72345295Y-159081904D01*
X72345295Y-159081904D02*
X72250057Y-159034285D01*
X72250057Y-159034285D02*
X72202438Y-158986666D01*
X72202438Y-158986666D02*
X72154819Y-158891428D01*
X72154819Y-158891428D02*
X72154819Y-158653333D01*
X72154819Y-158653333D02*
X72202438Y-158510476D01*
X73154819Y-157558095D02*
X73154819Y-158129523D01*
X73154819Y-157843809D02*
X72154819Y-157843809D01*
X72154819Y-157843809D02*
X72297676Y-157939047D01*
X72297676Y-157939047D02*
X72392914Y-158034285D01*
X72392914Y-158034285D02*
X72440533Y-158129523D01*
D11*
%TO.C,J1*%
X103810000Y-164830000D02*
X121650000Y-164830000D01*
X103810000Y-164830000D02*
X103810000Y-162170000D01*
X121650000Y-164830000D02*
X121650000Y-162170000D01*
X101210000Y-163500000D02*
X101210000Y-162170000D01*
X101210000Y-162170000D02*
X102540000Y-162170000D01*
X103810000Y-162170000D02*
X121650000Y-162170000D01*
%TO.C,J3*%
X126670000Y-164830000D02*
X139430000Y-164830000D01*
X126670000Y-164830000D02*
X126670000Y-162170000D01*
X139430000Y-164830000D02*
X139430000Y-162170000D01*
X124070000Y-163500000D02*
X124070000Y-162170000D01*
X124070000Y-162170000D02*
X125400000Y-162170000D01*
X126670000Y-162170000D02*
X139430000Y-162170000D01*
%TO.C,J2*%
X94666000Y-116570000D02*
X117586000Y-116570000D01*
X94666000Y-116570000D02*
X94666000Y-113910000D01*
X117586000Y-116570000D02*
X117586000Y-113910000D01*
X92066000Y-115240000D02*
X92066000Y-113910000D01*
X92066000Y-113910000D02*
X93396000Y-113910000D01*
X94666000Y-113910000D02*
X117586000Y-113910000D01*
%TO.C,J4*%
X121590000Y-116570000D02*
X139430000Y-116570000D01*
X121590000Y-116570000D02*
X121590000Y-113910000D01*
X139430000Y-116570000D02*
X139430000Y-113910000D01*
X118990000Y-115240000D02*
X118990000Y-113910000D01*
X118990000Y-113910000D02*
X120320000Y-113910000D01*
X121590000Y-113910000D02*
X139430000Y-113910000D01*
%TO.C,DS1*%
X85300000Y-161420000D02*
X89300000Y-161420000D01*
D12*
X73750000Y-161070000D02*
X149050000Y-161070000D01*
X149050000Y-161070000D02*
X149050000Y-108070000D01*
D11*
X144300000Y-155920000D02*
X75800000Y-155920000D01*
X144300000Y-155920000D02*
X144300000Y-153920000D01*
X74500000Y-154620000D02*
X75800000Y-154620000D01*
X74500000Y-154620000D02*
X74500000Y-112520000D01*
X75800000Y-154620000D02*
X75800000Y-155920000D01*
X144300000Y-153920000D02*
X145600000Y-153920000D01*
X82030000Y-149820000D02*
X140830000Y-149820000D01*
X141430000Y-149220000D02*
X141430000Y-117920000D01*
X81430000Y-117920000D02*
X81430000Y-149210000D01*
X140830000Y-117320000D02*
X82030000Y-117320000D01*
X144300000Y-113220000D02*
X145600000Y-113220000D01*
X145600000Y-113220000D02*
X145600000Y-153920000D01*
X75800000Y-112520000D02*
X74500000Y-112520000D01*
X75800000Y-111220000D02*
X75800000Y-112520000D01*
X75800000Y-111220000D02*
X144300000Y-111220000D01*
X144300000Y-111220000D02*
X144300000Y-113220000D01*
D12*
X73750000Y-108070000D02*
X73750000Y-161070000D01*
X73760000Y-108070000D02*
X74860000Y-108070000D01*
X144850000Y-108070000D02*
X78000000Y-108070000D01*
X149050000Y-108070000D02*
X148000000Y-108070000D01*
D11*
X81430000Y-149220000D02*
G75*
G03*
X82030000Y-149820000I600000J0D01*
G01*
X140830000Y-149820000D02*
G75*
G03*
X141430000Y-149220000I0J600000D01*
G01*
X82030000Y-117320000D02*
G75*
G03*
X81430000Y-117920000I0J-600000D01*
G01*
X141430000Y-117920000D02*
G75*
G03*
X140830000Y-117320000I-600000J0D01*
G01*
D12*
X74850001Y-108100000D02*
G75*
G03*
X75810000Y-110299999I1579999J-620000D01*
G01*
X144850001Y-108100000D02*
G75*
G03*
X145810000Y-110299999I1579999J-620000D01*
G01*
X75740000Y-110269999D02*
G75*
G03*
X77979999Y-109410000I690000J1549999D01*
G01*
X145810000Y-110299999D02*
G75*
G03*
X148009999Y-109340000I620000J1579999D01*
G01*
X147040000Y-110299999D02*
G75*
G03*
X148009999Y-108110000I-610000J1579999D01*
G01*
X77060000Y-110300000D02*
G75*
G03*
X78010000Y-108090000I-630000J1580000D01*
G01*
%TD*%
%LPC*%
D13*
%TO.C,J1*%
X102540000Y-163500000D03*
D14*
X105080000Y-163500000D03*
X107620000Y-163500000D03*
X110160000Y-163500000D03*
X112700000Y-163500000D03*
X115240000Y-163500000D03*
X117780000Y-163500000D03*
X120320000Y-163500000D03*
%TD*%
D13*
%TO.C,J3*%
X125400000Y-163500000D03*
D14*
X127940000Y-163500000D03*
X130480000Y-163500000D03*
X133020000Y-163500000D03*
X135560000Y-163500000D03*
X138100000Y-163500000D03*
%TD*%
D13*
%TO.C,J2*%
X93396000Y-115240000D03*
D14*
X95936000Y-115240000D03*
X98476000Y-115240000D03*
X101016000Y-115240000D03*
X103556000Y-115240000D03*
X106096000Y-115240000D03*
X108636000Y-115240000D03*
X111176000Y-115240000D03*
X113716000Y-115240000D03*
X116256000Y-115240000D03*
%TD*%
D13*
%TO.C,J4*%
X120320000Y-115240000D03*
D14*
X122860000Y-115240000D03*
X125400000Y-115240000D03*
X127940000Y-115240000D03*
X130480000Y-115240000D03*
X133020000Y-115240000D03*
X135560000Y-115240000D03*
X138100000Y-115240000D03*
%TD*%
D15*
%TO.C,DS1*%
X76430000Y-158420000D03*
X146430000Y-158420000D03*
X76430000Y-108720000D03*
X146430000Y-108720000D03*
D16*
X87300000Y-158420000D03*
D17*
X89840000Y-158420000D03*
X92380000Y-158420000D03*
X94920000Y-158420000D03*
X97460000Y-158420000D03*
X100000000Y-158420000D03*
X102540000Y-158420000D03*
X105080000Y-158420000D03*
X107620000Y-158420000D03*
X110160000Y-158420000D03*
X112700000Y-158420000D03*
X115240000Y-158420000D03*
X117780000Y-158420000D03*
X120320000Y-158420000D03*
X122860000Y-158420000D03*
X125400000Y-158420000D03*
X127940000Y-158420000D03*
X130480000Y-158420000D03*
X133020000Y-158420000D03*
X135560000Y-158420000D03*
%TD*%
D15*
%TO.C,MH1*%
X89840000Y-115240000D03*
%TD*%
%TO.C,MH2*%
X88570000Y-163500000D03*
%TD*%
%TO.C,MH3*%
X140640000Y-130480000D03*
%TD*%
%TO.C,MH4*%
X140640000Y-158420000D03*
%TD*%
%LPD*%
M02*
