M48
; DRILL file {KiCad 7.0.7-7.0.7~ubuntu22.04.1} date Wed 18 Oct 2023 17:56:36
; FORMAT={-:-/ absolute / metric / decimal}
; #@! TF.CreationDate,2023-10-18T17:56:36+02:00
; #@! TF.GenerationSoftware,Kicad,Pcbnew,7.0.7-7.0.7~ubuntu22.04.1
; #@! TF.FileFunction,Plated,1,2,PTH
FMAT,2
METRIC
; #@! TA.AperFunction,Plated,PTH,ComponentDrill
T1C1.000
; #@! TA.AperFunction,Plated,PTH,ComponentDrill
T2C1.200
; #@! TA.AperFunction,Plated,PTH,ComponentDrill
T3C2.700
%
G90
G05
T1
X93.396Y-115.24
X95.936Y-115.24
X98.476Y-115.24
X101.016Y-115.24
X102.54Y-163.5
X103.556Y-115.24
X105.08Y-163.5
X106.096Y-115.24
X107.62Y-163.5
X108.636Y-115.24
X110.16Y-163.5
X111.176Y-115.24
X112.7Y-163.5
X113.716Y-115.24
X115.24Y-163.5
X116.256Y-115.24
X117.78Y-163.5
X120.32Y-115.24
X120.32Y-163.5
X122.86Y-115.24
X125.4Y-115.24
X125.4Y-163.5
X127.94Y-115.24
X127.94Y-163.5
X130.48Y-115.24
X130.48Y-163.5
X133.02Y-115.24
X133.02Y-163.5
X135.56Y-115.24
X135.56Y-163.5
X138.1Y-115.24
X138.1Y-163.5
T2
X87.3Y-158.42
X89.84Y-158.42
X92.38Y-158.42
X94.92Y-158.42
X97.46Y-158.42
X100.0Y-158.42
X102.54Y-158.42
X105.08Y-158.42
X107.62Y-158.42
X110.16Y-158.42
X112.7Y-158.42
X115.24Y-158.42
X117.78Y-158.42
X120.32Y-158.42
X122.86Y-158.42
X125.4Y-158.42
X127.94Y-158.42
X130.48Y-158.42
X133.02Y-158.42
X135.56Y-158.42
T3
X76.43Y-108.72
X76.43Y-158.42
X146.43Y-108.72
X146.43Y-158.42
T0
M30
