%TF.GenerationSoftware,KiCad,Pcbnew,7.0.7-7.0.7~ubuntu22.04.1*%
%TF.CreationDate,2023-10-18T17:55:42+02:00*%
%TF.ProjectId,conway_proj,636f6e77-6179-45f7-9072-6f6a2e6b6963,rev?*%
%TF.SameCoordinates,Original*%
%TF.FileFunction,Legend,Bot*%
%TF.FilePolarity,Positive*%
%FSLAX46Y46*%
G04 Gerber Fmt 4.6, Leading zero omitted, Abs format (unit mm)*
G04 Created by KiCad (PCBNEW 7.0.7-7.0.7~ubuntu22.04.1) date 2023-10-18 17:55:42*
%MOMM*%
%LPD*%
G01*
G04 APERTURE LIST*
%ADD10R,1.700000X1.700000*%
%ADD11O,1.700000X1.700000*%
%ADD12C,3.200000*%
%ADD13R,1.800000X2.500000*%
%ADD14O,1.800000X2.500000*%
G04 APERTURE END LIST*
%LPC*%
D10*
%TO.C,J1*%
X102540000Y-163500000D03*
D11*
X105080000Y-163500000D03*
X107620000Y-163500000D03*
X110160000Y-163500000D03*
X112700000Y-163500000D03*
X115240000Y-163500000D03*
X117780000Y-163500000D03*
X120320000Y-163500000D03*
%TD*%
D10*
%TO.C,J3*%
X125400000Y-163500000D03*
D11*
X127940000Y-163500000D03*
X130480000Y-163500000D03*
X133020000Y-163500000D03*
X135560000Y-163500000D03*
X138100000Y-163500000D03*
%TD*%
D10*
%TO.C,J2*%
X93396000Y-115240000D03*
D11*
X95936000Y-115240000D03*
X98476000Y-115240000D03*
X101016000Y-115240000D03*
X103556000Y-115240000D03*
X106096000Y-115240000D03*
X108636000Y-115240000D03*
X111176000Y-115240000D03*
X113716000Y-115240000D03*
X116256000Y-115240000D03*
%TD*%
D10*
%TO.C,J4*%
X120320000Y-115240000D03*
D11*
X122860000Y-115240000D03*
X125400000Y-115240000D03*
X127940000Y-115240000D03*
X130480000Y-115240000D03*
X133020000Y-115240000D03*
X135560000Y-115240000D03*
X138100000Y-115240000D03*
%TD*%
D12*
%TO.C,DS1*%
X76430000Y-158420000D03*
X146430000Y-158420000D03*
X76430000Y-108720000D03*
X146430000Y-108720000D03*
D13*
X87300000Y-158420000D03*
D14*
X89840000Y-158420000D03*
X92380000Y-158420000D03*
X94920000Y-158420000D03*
X97460000Y-158420000D03*
X100000000Y-158420000D03*
X102540000Y-158420000D03*
X105080000Y-158420000D03*
X107620000Y-158420000D03*
X110160000Y-158420000D03*
X112700000Y-158420000D03*
X115240000Y-158420000D03*
X117780000Y-158420000D03*
X120320000Y-158420000D03*
X122860000Y-158420000D03*
X125400000Y-158420000D03*
X127940000Y-158420000D03*
X130480000Y-158420000D03*
X133020000Y-158420000D03*
X135560000Y-158420000D03*
%TD*%
D12*
%TO.C,MH1*%
X89840000Y-115240000D03*
%TD*%
%TO.C,MH2*%
X88570000Y-163500000D03*
%TD*%
%TO.C,MH3*%
X140640000Y-130480000D03*
%TD*%
%TO.C,MH4*%
X140640000Y-158420000D03*
%TD*%
%LPD*%
M02*
