%TF.GenerationSoftware,KiCad,Pcbnew,7.0.7-7.0.7~ubuntu22.04.1*%
%TF.CreationDate,2023-10-18T17:58:12+02:00*%
%TF.ProjectId,conway_proj,636f6e77-6179-45f7-9072-6f6a2e6b6963,rev?*%
%TF.SameCoordinates,Original*%
%TF.FileFunction,Drillmap*%
%TF.FilePolarity,Positive*%
%FSLAX45Y45*%
G04 Gerber Fmt 4.5, Leading zero omitted, Abs format (unit mm)*
G04 Created by KiCad (PCBNEW 7.0.7-7.0.7~ubuntu22.04.1) date 2023-10-18 17:58:12*
%MOMM*%
%LPD*%
G01*
G04 APERTURE LIST*
%ADD10C,0.150000*%
%ADD11C,0.200000*%
%ADD12C,0.100000*%
%ADD13C,0.120000*%
%ADD14C,0.270000*%
G04 APERTURE END LIST*
D10*
X14064000Y-12540000D02*
X14318000Y-12794000D01*
X7460000Y-16527800D02*
X7460000Y-11346200D01*
X14318000Y-12794000D02*
X14318000Y-16223000D01*
X13987800Y-16604000D02*
X7536200Y-16604000D01*
X7536200Y-11270000D02*
X13810000Y-11270000D01*
X7460000Y-16527800D02*
G75*
G03*
X7536200Y-16604000I76200J0D01*
G01*
X14318000Y-16223000D02*
X14064000Y-16477000D01*
X13810000Y-11270000D02*
X14064000Y-11524000D01*
X13987800Y-16604000D02*
G75*
G03*
X14064000Y-16527800I0J76200D01*
G01*
X14064000Y-11524000D02*
X14064000Y-12540000D01*
X14064000Y-16477000D02*
X14064000Y-16527800D01*
X7536200Y-11270000D02*
G75*
G03*
X7460000Y-11346200I0J-76200D01*
G01*
D11*
D12*
X9289600Y-11474000D02*
X9389600Y-11574000D01*
X9389600Y-11474000D02*
X9289600Y-11574000D01*
X9543600Y-11474000D02*
X9643600Y-11574000D01*
X9643600Y-11474000D02*
X9543600Y-11574000D01*
X9797600Y-11474000D02*
X9897600Y-11574000D01*
X9897600Y-11474000D02*
X9797600Y-11574000D01*
X10051600Y-11474000D02*
X10151600Y-11574000D01*
X10151600Y-11474000D02*
X10051600Y-11574000D01*
X10204000Y-16300000D02*
X10304000Y-16400000D01*
X10304000Y-16300000D02*
X10204000Y-16400000D01*
X10305600Y-11474000D02*
X10405600Y-11574000D01*
X10405600Y-11474000D02*
X10305600Y-11574000D01*
X10458000Y-16300000D02*
X10558000Y-16400000D01*
X10558000Y-16300000D02*
X10458000Y-16400000D01*
X10559600Y-11474000D02*
X10659600Y-11574000D01*
X10659600Y-11474000D02*
X10559600Y-11574000D01*
X10712000Y-16300000D02*
X10812000Y-16400000D01*
X10812000Y-16300000D02*
X10712000Y-16400000D01*
X10813600Y-11474000D02*
X10913600Y-11574000D01*
X10913600Y-11474000D02*
X10813600Y-11574000D01*
X10966000Y-16300000D02*
X11066000Y-16400000D01*
X11066000Y-16300000D02*
X10966000Y-16400000D01*
X11067600Y-11474000D02*
X11167600Y-11574000D01*
X11167600Y-11474000D02*
X11067600Y-11574000D01*
X11220000Y-16300000D02*
X11320000Y-16400000D01*
X11320000Y-16300000D02*
X11220000Y-16400000D01*
X11321600Y-11474000D02*
X11421600Y-11574000D01*
X11421600Y-11474000D02*
X11321600Y-11574000D01*
X11474000Y-16300000D02*
X11574000Y-16400000D01*
X11574000Y-16300000D02*
X11474000Y-16400000D01*
X11575600Y-11474000D02*
X11675600Y-11574000D01*
X11675600Y-11474000D02*
X11575600Y-11574000D01*
X11728000Y-16300000D02*
X11828000Y-16400000D01*
X11828000Y-16300000D02*
X11728000Y-16400000D01*
X11982000Y-11474000D02*
X12082000Y-11574000D01*
X12082000Y-11474000D02*
X11982000Y-11574000D01*
X11982000Y-16300000D02*
X12082000Y-16400000D01*
X12082000Y-16300000D02*
X11982000Y-16400000D01*
X12236000Y-11474000D02*
X12336000Y-11574000D01*
X12336000Y-11474000D02*
X12236000Y-11574000D01*
X12490000Y-11474000D02*
X12590000Y-11574000D01*
X12590000Y-11474000D02*
X12490000Y-11574000D01*
X12490000Y-16300000D02*
X12590000Y-16400000D01*
X12590000Y-16300000D02*
X12490000Y-16400000D01*
X12744000Y-11474000D02*
X12844000Y-11574000D01*
X12844000Y-11474000D02*
X12744000Y-11574000D01*
X12744000Y-16300000D02*
X12844000Y-16400000D01*
X12844000Y-16300000D02*
X12744000Y-16400000D01*
X12998000Y-11474000D02*
X13098000Y-11574000D01*
X13098000Y-11474000D02*
X12998000Y-11574000D01*
X12998000Y-16300000D02*
X13098000Y-16400000D01*
X13098000Y-16300000D02*
X12998000Y-16400000D01*
X13252000Y-11474000D02*
X13352000Y-11574000D01*
X13352000Y-11474000D02*
X13252000Y-11574000D01*
X13252000Y-16300000D02*
X13352000Y-16400000D01*
X13352000Y-16300000D02*
X13252000Y-16400000D01*
X13506000Y-11474000D02*
X13606000Y-11574000D01*
X13606000Y-11474000D02*
X13506000Y-11574000D01*
X13506000Y-16300000D02*
X13606000Y-16400000D01*
X13606000Y-16300000D02*
X13506000Y-16400000D01*
X13760000Y-11474000D02*
X13860000Y-11574000D01*
X13860000Y-11474000D02*
X13760000Y-11574000D01*
X13760000Y-16300000D02*
X13860000Y-16400000D01*
X13860000Y-16300000D02*
X13760000Y-16400000D01*
D13*
X8790000Y-15842000D02*
G75*
G03*
X8790000Y-15842000I-60000J0D01*
G01*
X9044000Y-15842000D02*
G75*
G03*
X9044000Y-15842000I-60000J0D01*
G01*
X9298000Y-15842000D02*
G75*
G03*
X9298000Y-15842000I-60000J0D01*
G01*
X9552000Y-15842000D02*
G75*
G03*
X9552000Y-15842000I-60000J0D01*
G01*
X9806000Y-15842000D02*
G75*
G03*
X9806000Y-15842000I-60000J0D01*
G01*
X10060000Y-15842000D02*
G75*
G03*
X10060000Y-15842000I-60000J0D01*
G01*
X10314000Y-15842000D02*
G75*
G03*
X10314000Y-15842000I-60000J0D01*
G01*
X10568000Y-15842000D02*
G75*
G03*
X10568000Y-15842000I-60000J0D01*
G01*
X10822000Y-15842000D02*
G75*
G03*
X10822000Y-15842000I-60000J0D01*
G01*
X11076000Y-15842000D02*
G75*
G03*
X11076000Y-15842000I-60000J0D01*
G01*
X11330000Y-15842000D02*
G75*
G03*
X11330000Y-15842000I-60000J0D01*
G01*
X11584000Y-15842000D02*
G75*
G03*
X11584000Y-15842000I-60000J0D01*
G01*
X11838000Y-15842000D02*
G75*
G03*
X11838000Y-15842000I-60000J0D01*
G01*
X12092000Y-15842000D02*
G75*
G03*
X12092000Y-15842000I-60000J0D01*
G01*
X12346000Y-15842000D02*
G75*
G03*
X12346000Y-15842000I-60000J0D01*
G01*
X12600000Y-15842000D02*
G75*
G03*
X12600000Y-15842000I-60000J0D01*
G01*
X12854000Y-15842000D02*
G75*
G03*
X12854000Y-15842000I-60000J0D01*
G01*
X13108000Y-15842000D02*
G75*
G03*
X13108000Y-15842000I-60000J0D01*
G01*
X13362000Y-15842000D02*
G75*
G03*
X13362000Y-15842000I-60000J0D01*
G01*
X13616000Y-15842000D02*
G75*
G03*
X13616000Y-15842000I-60000J0D01*
G01*
D14*
X7643000Y-10737000D02*
X7643000Y-11007000D01*
X7508000Y-10872000D02*
X7778000Y-10872000D01*
X7643000Y-15707000D02*
X7643000Y-15977000D01*
X7508000Y-15842000D02*
X7778000Y-15842000D01*
X14643000Y-10737000D02*
X14643000Y-11007000D01*
X14508000Y-10872000D02*
X14778000Y-10872000D01*
X14643000Y-15707000D02*
X14643000Y-15977000D01*
X14508000Y-15842000D02*
X14778000Y-15842000D01*
D11*
X7713277Y-16922984D02*
X7713277Y-16722984D01*
X7713277Y-16722984D02*
X7760896Y-16722984D01*
X7760896Y-16722984D02*
X7789467Y-16732508D01*
X7789467Y-16732508D02*
X7808515Y-16751555D01*
X7808515Y-16751555D02*
X7818039Y-16770603D01*
X7818039Y-16770603D02*
X7827562Y-16808698D01*
X7827562Y-16808698D02*
X7827562Y-16837270D01*
X7827562Y-16837270D02*
X7818039Y-16875365D01*
X7818039Y-16875365D02*
X7808515Y-16894412D01*
X7808515Y-16894412D02*
X7789467Y-16913460D01*
X7789467Y-16913460D02*
X7760896Y-16922984D01*
X7760896Y-16922984D02*
X7713277Y-16922984D01*
X7913277Y-16922984D02*
X7913277Y-16789650D01*
X7913277Y-16827746D02*
X7922801Y-16808698D01*
X7922801Y-16808698D02*
X7932324Y-16799174D01*
X7932324Y-16799174D02*
X7951372Y-16789650D01*
X7951372Y-16789650D02*
X7970420Y-16789650D01*
X8037086Y-16922984D02*
X8037086Y-16789650D01*
X8037086Y-16722984D02*
X8027562Y-16732508D01*
X8027562Y-16732508D02*
X8037086Y-16742031D01*
X8037086Y-16742031D02*
X8046610Y-16732508D01*
X8046610Y-16732508D02*
X8037086Y-16722984D01*
X8037086Y-16722984D02*
X8037086Y-16742031D01*
X8160896Y-16922984D02*
X8141848Y-16913460D01*
X8141848Y-16913460D02*
X8132324Y-16894412D01*
X8132324Y-16894412D02*
X8132324Y-16722984D01*
X8265658Y-16922984D02*
X8246610Y-16913460D01*
X8246610Y-16913460D02*
X8237086Y-16894412D01*
X8237086Y-16894412D02*
X8237086Y-16722984D01*
X8494229Y-16922984D02*
X8494229Y-16722984D01*
X8494229Y-16722984D02*
X8560896Y-16865841D01*
X8560896Y-16865841D02*
X8627563Y-16722984D01*
X8627563Y-16722984D02*
X8627563Y-16922984D01*
X8808515Y-16922984D02*
X8808515Y-16818222D01*
X8808515Y-16818222D02*
X8798991Y-16799174D01*
X8798991Y-16799174D02*
X8779944Y-16789650D01*
X8779944Y-16789650D02*
X8741848Y-16789650D01*
X8741848Y-16789650D02*
X8722801Y-16799174D01*
X8808515Y-16913460D02*
X8789467Y-16922984D01*
X8789467Y-16922984D02*
X8741848Y-16922984D01*
X8741848Y-16922984D02*
X8722801Y-16913460D01*
X8722801Y-16913460D02*
X8713277Y-16894412D01*
X8713277Y-16894412D02*
X8713277Y-16875365D01*
X8713277Y-16875365D02*
X8722801Y-16856317D01*
X8722801Y-16856317D02*
X8741848Y-16846793D01*
X8741848Y-16846793D02*
X8789467Y-16846793D01*
X8789467Y-16846793D02*
X8808515Y-16837270D01*
X8903753Y-16789650D02*
X8903753Y-16989650D01*
X8903753Y-16799174D02*
X8922801Y-16789650D01*
X8922801Y-16789650D02*
X8960896Y-16789650D01*
X8960896Y-16789650D02*
X8979944Y-16799174D01*
X8979944Y-16799174D02*
X8989467Y-16808698D01*
X8989467Y-16808698D02*
X8998991Y-16827746D01*
X8998991Y-16827746D02*
X8998991Y-16884889D01*
X8998991Y-16884889D02*
X8989467Y-16903936D01*
X8989467Y-16903936D02*
X8979944Y-16913460D01*
X8979944Y-16913460D02*
X8960896Y-16922984D01*
X8960896Y-16922984D02*
X8922801Y-16922984D01*
X8922801Y-16922984D02*
X8903753Y-16913460D01*
X9084705Y-16903936D02*
X9094229Y-16913460D01*
X9094229Y-16913460D02*
X9084705Y-16922984D01*
X9084705Y-16922984D02*
X9075182Y-16913460D01*
X9075182Y-16913460D02*
X9084705Y-16903936D01*
X9084705Y-16903936D02*
X9084705Y-16922984D01*
X9084705Y-16799174D02*
X9094229Y-16808698D01*
X9094229Y-16808698D02*
X9084705Y-16818222D01*
X9084705Y-16818222D02*
X9075182Y-16808698D01*
X9075182Y-16808698D02*
X9084705Y-16799174D01*
X9084705Y-16799174D02*
X9084705Y-16818222D01*
D12*
X7352500Y-17201500D02*
X7452500Y-17301500D01*
X7452500Y-17201500D02*
X7352500Y-17301500D01*
D11*
X7818039Y-17342984D02*
X7703753Y-17342984D01*
X7760896Y-17342984D02*
X7760896Y-17142984D01*
X7760896Y-17142984D02*
X7741848Y-17171555D01*
X7741848Y-17171555D02*
X7722801Y-17190603D01*
X7722801Y-17190603D02*
X7703753Y-17200127D01*
X7903753Y-17323936D02*
X7913277Y-17333460D01*
X7913277Y-17333460D02*
X7903753Y-17342984D01*
X7903753Y-17342984D02*
X7894229Y-17333460D01*
X7894229Y-17333460D02*
X7903753Y-17323936D01*
X7903753Y-17323936D02*
X7903753Y-17342984D01*
X8037086Y-17142984D02*
X8056134Y-17142984D01*
X8056134Y-17142984D02*
X8075182Y-17152508D01*
X8075182Y-17152508D02*
X8084705Y-17162031D01*
X8084705Y-17162031D02*
X8094229Y-17181079D01*
X8094229Y-17181079D02*
X8103753Y-17219174D01*
X8103753Y-17219174D02*
X8103753Y-17266793D01*
X8103753Y-17266793D02*
X8094229Y-17304889D01*
X8094229Y-17304889D02*
X8084705Y-17323936D01*
X8084705Y-17323936D02*
X8075182Y-17333460D01*
X8075182Y-17333460D02*
X8056134Y-17342984D01*
X8056134Y-17342984D02*
X8037086Y-17342984D01*
X8037086Y-17342984D02*
X8018039Y-17333460D01*
X8018039Y-17333460D02*
X8008515Y-17323936D01*
X8008515Y-17323936D02*
X7998991Y-17304889D01*
X7998991Y-17304889D02*
X7989467Y-17266793D01*
X7989467Y-17266793D02*
X7989467Y-17219174D01*
X7989467Y-17219174D02*
X7998991Y-17181079D01*
X7998991Y-17181079D02*
X8008515Y-17162031D01*
X8008515Y-17162031D02*
X8018039Y-17152508D01*
X8018039Y-17152508D02*
X8037086Y-17142984D01*
X8227562Y-17142984D02*
X8246610Y-17142984D01*
X8246610Y-17142984D02*
X8265658Y-17152508D01*
X8265658Y-17152508D02*
X8275182Y-17162031D01*
X8275182Y-17162031D02*
X8284705Y-17181079D01*
X8284705Y-17181079D02*
X8294229Y-17219174D01*
X8294229Y-17219174D02*
X8294229Y-17266793D01*
X8294229Y-17266793D02*
X8284705Y-17304889D01*
X8284705Y-17304889D02*
X8275182Y-17323936D01*
X8275182Y-17323936D02*
X8265658Y-17333460D01*
X8265658Y-17333460D02*
X8246610Y-17342984D01*
X8246610Y-17342984D02*
X8227562Y-17342984D01*
X8227562Y-17342984D02*
X8208515Y-17333460D01*
X8208515Y-17333460D02*
X8198991Y-17323936D01*
X8198991Y-17323936D02*
X8189467Y-17304889D01*
X8189467Y-17304889D02*
X8179943Y-17266793D01*
X8179943Y-17266793D02*
X8179943Y-17219174D01*
X8179943Y-17219174D02*
X8189467Y-17181079D01*
X8189467Y-17181079D02*
X8198991Y-17162031D01*
X8198991Y-17162031D02*
X8208515Y-17152508D01*
X8208515Y-17152508D02*
X8227562Y-17142984D01*
X8418039Y-17142984D02*
X8437086Y-17142984D01*
X8437086Y-17142984D02*
X8456134Y-17152508D01*
X8456134Y-17152508D02*
X8465658Y-17162031D01*
X8465658Y-17162031D02*
X8475182Y-17181079D01*
X8475182Y-17181079D02*
X8484705Y-17219174D01*
X8484705Y-17219174D02*
X8484705Y-17266793D01*
X8484705Y-17266793D02*
X8475182Y-17304889D01*
X8475182Y-17304889D02*
X8465658Y-17323936D01*
X8465658Y-17323936D02*
X8456134Y-17333460D01*
X8456134Y-17333460D02*
X8437086Y-17342984D01*
X8437086Y-17342984D02*
X8418039Y-17342984D01*
X8418039Y-17342984D02*
X8398991Y-17333460D01*
X8398991Y-17333460D02*
X8389467Y-17323936D01*
X8389467Y-17323936D02*
X8379943Y-17304889D01*
X8379943Y-17304889D02*
X8370420Y-17266793D01*
X8370420Y-17266793D02*
X8370420Y-17219174D01*
X8370420Y-17219174D02*
X8379943Y-17181079D01*
X8379943Y-17181079D02*
X8389467Y-17162031D01*
X8389467Y-17162031D02*
X8398991Y-17152508D01*
X8398991Y-17152508D02*
X8418039Y-17142984D01*
X8570420Y-17342984D02*
X8570420Y-17209650D01*
X8570420Y-17228698D02*
X8579944Y-17219174D01*
X8579944Y-17219174D02*
X8598991Y-17209650D01*
X8598991Y-17209650D02*
X8627563Y-17209650D01*
X8627563Y-17209650D02*
X8646610Y-17219174D01*
X8646610Y-17219174D02*
X8656134Y-17238222D01*
X8656134Y-17238222D02*
X8656134Y-17342984D01*
X8656134Y-17238222D02*
X8665658Y-17219174D01*
X8665658Y-17219174D02*
X8684705Y-17209650D01*
X8684705Y-17209650D02*
X8713277Y-17209650D01*
X8713277Y-17209650D02*
X8732325Y-17219174D01*
X8732325Y-17219174D02*
X8741848Y-17238222D01*
X8741848Y-17238222D02*
X8741848Y-17342984D01*
X8837086Y-17342984D02*
X8837086Y-17209650D01*
X8837086Y-17228698D02*
X8846610Y-17219174D01*
X8846610Y-17219174D02*
X8865658Y-17209650D01*
X8865658Y-17209650D02*
X8894229Y-17209650D01*
X8894229Y-17209650D02*
X8913277Y-17219174D01*
X8913277Y-17219174D02*
X8922801Y-17238222D01*
X8922801Y-17238222D02*
X8922801Y-17342984D01*
X8922801Y-17238222D02*
X8932325Y-17219174D01*
X8932325Y-17219174D02*
X8951372Y-17209650D01*
X8951372Y-17209650D02*
X8979944Y-17209650D01*
X8979944Y-17209650D02*
X8998991Y-17219174D01*
X8998991Y-17219174D02*
X9008515Y-17238222D01*
X9008515Y-17238222D02*
X9008515Y-17342984D01*
X9398991Y-17133460D02*
X9227563Y-17390603D01*
X9656134Y-17142984D02*
X9675182Y-17142984D01*
X9675182Y-17142984D02*
X9694229Y-17152508D01*
X9694229Y-17152508D02*
X9703753Y-17162031D01*
X9703753Y-17162031D02*
X9713277Y-17181079D01*
X9713277Y-17181079D02*
X9722801Y-17219174D01*
X9722801Y-17219174D02*
X9722801Y-17266793D01*
X9722801Y-17266793D02*
X9713277Y-17304889D01*
X9713277Y-17304889D02*
X9703753Y-17323936D01*
X9703753Y-17323936D02*
X9694229Y-17333460D01*
X9694229Y-17333460D02*
X9675182Y-17342984D01*
X9675182Y-17342984D02*
X9656134Y-17342984D01*
X9656134Y-17342984D02*
X9637087Y-17333460D01*
X9637087Y-17333460D02*
X9627563Y-17323936D01*
X9627563Y-17323936D02*
X9618039Y-17304889D01*
X9618039Y-17304889D02*
X9608515Y-17266793D01*
X9608515Y-17266793D02*
X9608515Y-17219174D01*
X9608515Y-17219174D02*
X9618039Y-17181079D01*
X9618039Y-17181079D02*
X9627563Y-17162031D01*
X9627563Y-17162031D02*
X9637087Y-17152508D01*
X9637087Y-17152508D02*
X9656134Y-17142984D01*
X9808515Y-17323936D02*
X9818039Y-17333460D01*
X9818039Y-17333460D02*
X9808515Y-17342984D01*
X9808515Y-17342984D02*
X9798991Y-17333460D01*
X9798991Y-17333460D02*
X9808515Y-17323936D01*
X9808515Y-17323936D02*
X9808515Y-17342984D01*
X9941848Y-17142984D02*
X9960896Y-17142984D01*
X9960896Y-17142984D02*
X9979944Y-17152508D01*
X9979944Y-17152508D02*
X9989468Y-17162031D01*
X9989468Y-17162031D02*
X9998991Y-17181079D01*
X9998991Y-17181079D02*
X10008515Y-17219174D01*
X10008515Y-17219174D02*
X10008515Y-17266793D01*
X10008515Y-17266793D02*
X9998991Y-17304889D01*
X9998991Y-17304889D02*
X9989468Y-17323936D01*
X9989468Y-17323936D02*
X9979944Y-17333460D01*
X9979944Y-17333460D02*
X9960896Y-17342984D01*
X9960896Y-17342984D02*
X9941848Y-17342984D01*
X9941848Y-17342984D02*
X9922801Y-17333460D01*
X9922801Y-17333460D02*
X9913277Y-17323936D01*
X9913277Y-17323936D02*
X9903753Y-17304889D01*
X9903753Y-17304889D02*
X9894229Y-17266793D01*
X9894229Y-17266793D02*
X9894229Y-17219174D01*
X9894229Y-17219174D02*
X9903753Y-17181079D01*
X9903753Y-17181079D02*
X9913277Y-17162031D01*
X9913277Y-17162031D02*
X9922801Y-17152508D01*
X9922801Y-17152508D02*
X9941848Y-17142984D01*
X10075182Y-17142984D02*
X10198991Y-17142984D01*
X10198991Y-17142984D02*
X10132325Y-17219174D01*
X10132325Y-17219174D02*
X10160896Y-17219174D01*
X10160896Y-17219174D02*
X10179944Y-17228698D01*
X10179944Y-17228698D02*
X10189468Y-17238222D01*
X10189468Y-17238222D02*
X10198991Y-17257270D01*
X10198991Y-17257270D02*
X10198991Y-17304889D01*
X10198991Y-17304889D02*
X10189468Y-17323936D01*
X10189468Y-17323936D02*
X10179944Y-17333460D01*
X10179944Y-17333460D02*
X10160896Y-17342984D01*
X10160896Y-17342984D02*
X10103753Y-17342984D01*
X10103753Y-17342984D02*
X10084706Y-17333460D01*
X10084706Y-17333460D02*
X10075182Y-17323936D01*
X10294229Y-17342984D02*
X10332325Y-17342984D01*
X10332325Y-17342984D02*
X10351372Y-17333460D01*
X10351372Y-17333460D02*
X10360896Y-17323936D01*
X10360896Y-17323936D02*
X10379944Y-17295365D01*
X10379944Y-17295365D02*
X10389468Y-17257270D01*
X10389468Y-17257270D02*
X10389468Y-17181079D01*
X10389468Y-17181079D02*
X10379944Y-17162031D01*
X10379944Y-17162031D02*
X10370420Y-17152508D01*
X10370420Y-17152508D02*
X10351372Y-17142984D01*
X10351372Y-17142984D02*
X10313277Y-17142984D01*
X10313277Y-17142984D02*
X10294229Y-17152508D01*
X10294229Y-17152508D02*
X10284706Y-17162031D01*
X10284706Y-17162031D02*
X10275182Y-17181079D01*
X10275182Y-17181079D02*
X10275182Y-17228698D01*
X10275182Y-17228698D02*
X10284706Y-17247746D01*
X10284706Y-17247746D02*
X10294229Y-17257270D01*
X10294229Y-17257270D02*
X10313277Y-17266793D01*
X10313277Y-17266793D02*
X10351372Y-17266793D01*
X10351372Y-17266793D02*
X10370420Y-17257270D01*
X10370420Y-17257270D02*
X10379944Y-17247746D01*
X10379944Y-17247746D02*
X10389468Y-17228698D01*
X10560896Y-17209650D02*
X10560896Y-17342984D01*
X10513277Y-17133460D02*
X10465658Y-17276317D01*
X10465658Y-17276317D02*
X10589468Y-17276317D01*
X10656134Y-17142984D02*
X10656134Y-17181079D01*
X10732325Y-17142984D02*
X10732325Y-17181079D01*
X11027563Y-17419174D02*
X11018039Y-17409650D01*
X11018039Y-17409650D02*
X10998991Y-17381079D01*
X10998991Y-17381079D02*
X10989468Y-17362031D01*
X10989468Y-17362031D02*
X10979944Y-17333460D01*
X10979944Y-17333460D02*
X10970420Y-17285841D01*
X10970420Y-17285841D02*
X10970420Y-17247746D01*
X10970420Y-17247746D02*
X10979944Y-17200127D01*
X10979944Y-17200127D02*
X10989468Y-17171555D01*
X10989468Y-17171555D02*
X10998991Y-17152508D01*
X10998991Y-17152508D02*
X11018039Y-17123936D01*
X11018039Y-17123936D02*
X11027563Y-17114412D01*
X11084706Y-17142984D02*
X11208515Y-17142984D01*
X11208515Y-17142984D02*
X11141849Y-17219174D01*
X11141849Y-17219174D02*
X11170420Y-17219174D01*
X11170420Y-17219174D02*
X11189468Y-17228698D01*
X11189468Y-17228698D02*
X11198991Y-17238222D01*
X11198991Y-17238222D02*
X11208515Y-17257270D01*
X11208515Y-17257270D02*
X11208515Y-17304889D01*
X11208515Y-17304889D02*
X11198991Y-17323936D01*
X11198991Y-17323936D02*
X11189468Y-17333460D01*
X11189468Y-17333460D02*
X11170420Y-17342984D01*
X11170420Y-17342984D02*
X11113277Y-17342984D01*
X11113277Y-17342984D02*
X11094230Y-17333460D01*
X11094230Y-17333460D02*
X11084706Y-17323936D01*
X11284706Y-17162031D02*
X11294229Y-17152508D01*
X11294229Y-17152508D02*
X11313277Y-17142984D01*
X11313277Y-17142984D02*
X11360896Y-17142984D01*
X11360896Y-17142984D02*
X11379944Y-17152508D01*
X11379944Y-17152508D02*
X11389468Y-17162031D01*
X11389468Y-17162031D02*
X11398991Y-17181079D01*
X11398991Y-17181079D02*
X11398991Y-17200127D01*
X11398991Y-17200127D02*
X11389468Y-17228698D01*
X11389468Y-17228698D02*
X11275182Y-17342984D01*
X11275182Y-17342984D02*
X11398991Y-17342984D01*
X11637087Y-17342984D02*
X11637087Y-17142984D01*
X11722801Y-17342984D02*
X11722801Y-17238222D01*
X11722801Y-17238222D02*
X11713277Y-17219174D01*
X11713277Y-17219174D02*
X11694230Y-17209650D01*
X11694230Y-17209650D02*
X11665658Y-17209650D01*
X11665658Y-17209650D02*
X11646610Y-17219174D01*
X11646610Y-17219174D02*
X11637087Y-17228698D01*
X11846610Y-17342984D02*
X11827563Y-17333460D01*
X11827563Y-17333460D02*
X11818039Y-17323936D01*
X11818039Y-17323936D02*
X11808515Y-17304889D01*
X11808515Y-17304889D02*
X11808515Y-17247746D01*
X11808515Y-17247746D02*
X11818039Y-17228698D01*
X11818039Y-17228698D02*
X11827563Y-17219174D01*
X11827563Y-17219174D02*
X11846610Y-17209650D01*
X11846610Y-17209650D02*
X11875182Y-17209650D01*
X11875182Y-17209650D02*
X11894230Y-17219174D01*
X11894230Y-17219174D02*
X11903753Y-17228698D01*
X11903753Y-17228698D02*
X11913277Y-17247746D01*
X11913277Y-17247746D02*
X11913277Y-17304889D01*
X11913277Y-17304889D02*
X11903753Y-17323936D01*
X11903753Y-17323936D02*
X11894230Y-17333460D01*
X11894230Y-17333460D02*
X11875182Y-17342984D01*
X11875182Y-17342984D02*
X11846610Y-17342984D01*
X12027563Y-17342984D02*
X12008515Y-17333460D01*
X12008515Y-17333460D02*
X11998991Y-17314412D01*
X11998991Y-17314412D02*
X11998991Y-17142984D01*
X12179944Y-17333460D02*
X12160896Y-17342984D01*
X12160896Y-17342984D02*
X12122801Y-17342984D01*
X12122801Y-17342984D02*
X12103753Y-17333460D01*
X12103753Y-17333460D02*
X12094230Y-17314412D01*
X12094230Y-17314412D02*
X12094230Y-17238222D01*
X12094230Y-17238222D02*
X12103753Y-17219174D01*
X12103753Y-17219174D02*
X12122801Y-17209650D01*
X12122801Y-17209650D02*
X12160896Y-17209650D01*
X12160896Y-17209650D02*
X12179944Y-17219174D01*
X12179944Y-17219174D02*
X12189468Y-17238222D01*
X12189468Y-17238222D02*
X12189468Y-17257270D01*
X12189468Y-17257270D02*
X12094230Y-17276317D01*
X12265658Y-17333460D02*
X12284706Y-17342984D01*
X12284706Y-17342984D02*
X12322801Y-17342984D01*
X12322801Y-17342984D02*
X12341849Y-17333460D01*
X12341849Y-17333460D02*
X12351372Y-17314412D01*
X12351372Y-17314412D02*
X12351372Y-17304889D01*
X12351372Y-17304889D02*
X12341849Y-17285841D01*
X12341849Y-17285841D02*
X12322801Y-17276317D01*
X12322801Y-17276317D02*
X12294230Y-17276317D01*
X12294230Y-17276317D02*
X12275182Y-17266793D01*
X12275182Y-17266793D02*
X12265658Y-17247746D01*
X12265658Y-17247746D02*
X12265658Y-17238222D01*
X12265658Y-17238222D02*
X12275182Y-17219174D01*
X12275182Y-17219174D02*
X12294230Y-17209650D01*
X12294230Y-17209650D02*
X12322801Y-17209650D01*
X12322801Y-17209650D02*
X12341849Y-17219174D01*
X12418039Y-17419174D02*
X12427563Y-17409650D01*
X12427563Y-17409650D02*
X12446611Y-17381079D01*
X12446611Y-17381079D02*
X12456134Y-17362031D01*
X12456134Y-17362031D02*
X12465658Y-17333460D01*
X12465658Y-17333460D02*
X12475182Y-17285841D01*
X12475182Y-17285841D02*
X12475182Y-17247746D01*
X12475182Y-17247746D02*
X12465658Y-17200127D01*
X12465658Y-17200127D02*
X12456134Y-17171555D01*
X12456134Y-17171555D02*
X12446611Y-17152508D01*
X12446611Y-17152508D02*
X12427563Y-17123936D01*
X12427563Y-17123936D02*
X12418039Y-17114412D01*
D13*
X7452500Y-17515500D02*
G75*
G03*
X7452500Y-17515500I-60000J0D01*
G01*
D11*
X7818039Y-17606984D02*
X7703753Y-17606984D01*
X7760896Y-17606984D02*
X7760896Y-17406984D01*
X7760896Y-17406984D02*
X7741848Y-17435555D01*
X7741848Y-17435555D02*
X7722801Y-17454603D01*
X7722801Y-17454603D02*
X7703753Y-17464127D01*
X7903753Y-17587936D02*
X7913277Y-17597460D01*
X7913277Y-17597460D02*
X7903753Y-17606984D01*
X7903753Y-17606984D02*
X7894229Y-17597460D01*
X7894229Y-17597460D02*
X7903753Y-17587936D01*
X7903753Y-17587936D02*
X7903753Y-17606984D01*
X7989467Y-17426031D02*
X7998991Y-17416508D01*
X7998991Y-17416508D02*
X8018039Y-17406984D01*
X8018039Y-17406984D02*
X8065658Y-17406984D01*
X8065658Y-17406984D02*
X8084705Y-17416508D01*
X8084705Y-17416508D02*
X8094229Y-17426031D01*
X8094229Y-17426031D02*
X8103753Y-17445079D01*
X8103753Y-17445079D02*
X8103753Y-17464127D01*
X8103753Y-17464127D02*
X8094229Y-17492698D01*
X8094229Y-17492698D02*
X7979943Y-17606984D01*
X7979943Y-17606984D02*
X8103753Y-17606984D01*
X8227562Y-17406984D02*
X8246610Y-17406984D01*
X8246610Y-17406984D02*
X8265658Y-17416508D01*
X8265658Y-17416508D02*
X8275182Y-17426031D01*
X8275182Y-17426031D02*
X8284705Y-17445079D01*
X8284705Y-17445079D02*
X8294229Y-17483174D01*
X8294229Y-17483174D02*
X8294229Y-17530793D01*
X8294229Y-17530793D02*
X8284705Y-17568889D01*
X8284705Y-17568889D02*
X8275182Y-17587936D01*
X8275182Y-17587936D02*
X8265658Y-17597460D01*
X8265658Y-17597460D02*
X8246610Y-17606984D01*
X8246610Y-17606984D02*
X8227562Y-17606984D01*
X8227562Y-17606984D02*
X8208515Y-17597460D01*
X8208515Y-17597460D02*
X8198991Y-17587936D01*
X8198991Y-17587936D02*
X8189467Y-17568889D01*
X8189467Y-17568889D02*
X8179943Y-17530793D01*
X8179943Y-17530793D02*
X8179943Y-17483174D01*
X8179943Y-17483174D02*
X8189467Y-17445079D01*
X8189467Y-17445079D02*
X8198991Y-17426031D01*
X8198991Y-17426031D02*
X8208515Y-17416508D01*
X8208515Y-17416508D02*
X8227562Y-17406984D01*
X8418039Y-17406984D02*
X8437086Y-17406984D01*
X8437086Y-17406984D02*
X8456134Y-17416508D01*
X8456134Y-17416508D02*
X8465658Y-17426031D01*
X8465658Y-17426031D02*
X8475182Y-17445079D01*
X8475182Y-17445079D02*
X8484705Y-17483174D01*
X8484705Y-17483174D02*
X8484705Y-17530793D01*
X8484705Y-17530793D02*
X8475182Y-17568889D01*
X8475182Y-17568889D02*
X8465658Y-17587936D01*
X8465658Y-17587936D02*
X8456134Y-17597460D01*
X8456134Y-17597460D02*
X8437086Y-17606984D01*
X8437086Y-17606984D02*
X8418039Y-17606984D01*
X8418039Y-17606984D02*
X8398991Y-17597460D01*
X8398991Y-17597460D02*
X8389467Y-17587936D01*
X8389467Y-17587936D02*
X8379943Y-17568889D01*
X8379943Y-17568889D02*
X8370420Y-17530793D01*
X8370420Y-17530793D02*
X8370420Y-17483174D01*
X8370420Y-17483174D02*
X8379943Y-17445079D01*
X8379943Y-17445079D02*
X8389467Y-17426031D01*
X8389467Y-17426031D02*
X8398991Y-17416508D01*
X8398991Y-17416508D02*
X8418039Y-17406984D01*
X8570420Y-17606984D02*
X8570420Y-17473650D01*
X8570420Y-17492698D02*
X8579944Y-17483174D01*
X8579944Y-17483174D02*
X8598991Y-17473650D01*
X8598991Y-17473650D02*
X8627563Y-17473650D01*
X8627563Y-17473650D02*
X8646610Y-17483174D01*
X8646610Y-17483174D02*
X8656134Y-17502222D01*
X8656134Y-17502222D02*
X8656134Y-17606984D01*
X8656134Y-17502222D02*
X8665658Y-17483174D01*
X8665658Y-17483174D02*
X8684705Y-17473650D01*
X8684705Y-17473650D02*
X8713277Y-17473650D01*
X8713277Y-17473650D02*
X8732325Y-17483174D01*
X8732325Y-17483174D02*
X8741848Y-17502222D01*
X8741848Y-17502222D02*
X8741848Y-17606984D01*
X8837086Y-17606984D02*
X8837086Y-17473650D01*
X8837086Y-17492698D02*
X8846610Y-17483174D01*
X8846610Y-17483174D02*
X8865658Y-17473650D01*
X8865658Y-17473650D02*
X8894229Y-17473650D01*
X8894229Y-17473650D02*
X8913277Y-17483174D01*
X8913277Y-17483174D02*
X8922801Y-17502222D01*
X8922801Y-17502222D02*
X8922801Y-17606984D01*
X8922801Y-17502222D02*
X8932325Y-17483174D01*
X8932325Y-17483174D02*
X8951372Y-17473650D01*
X8951372Y-17473650D02*
X8979944Y-17473650D01*
X8979944Y-17473650D02*
X8998991Y-17483174D01*
X8998991Y-17483174D02*
X9008515Y-17502222D01*
X9008515Y-17502222D02*
X9008515Y-17606984D01*
X9398991Y-17397460D02*
X9227563Y-17654603D01*
X9656134Y-17406984D02*
X9675182Y-17406984D01*
X9675182Y-17406984D02*
X9694229Y-17416508D01*
X9694229Y-17416508D02*
X9703753Y-17426031D01*
X9703753Y-17426031D02*
X9713277Y-17445079D01*
X9713277Y-17445079D02*
X9722801Y-17483174D01*
X9722801Y-17483174D02*
X9722801Y-17530793D01*
X9722801Y-17530793D02*
X9713277Y-17568889D01*
X9713277Y-17568889D02*
X9703753Y-17587936D01*
X9703753Y-17587936D02*
X9694229Y-17597460D01*
X9694229Y-17597460D02*
X9675182Y-17606984D01*
X9675182Y-17606984D02*
X9656134Y-17606984D01*
X9656134Y-17606984D02*
X9637087Y-17597460D01*
X9637087Y-17597460D02*
X9627563Y-17587936D01*
X9627563Y-17587936D02*
X9618039Y-17568889D01*
X9618039Y-17568889D02*
X9608515Y-17530793D01*
X9608515Y-17530793D02*
X9608515Y-17483174D01*
X9608515Y-17483174D02*
X9618039Y-17445079D01*
X9618039Y-17445079D02*
X9627563Y-17426031D01*
X9627563Y-17426031D02*
X9637087Y-17416508D01*
X9637087Y-17416508D02*
X9656134Y-17406984D01*
X9808515Y-17587936D02*
X9818039Y-17597460D01*
X9818039Y-17597460D02*
X9808515Y-17606984D01*
X9808515Y-17606984D02*
X9798991Y-17597460D01*
X9798991Y-17597460D02*
X9808515Y-17587936D01*
X9808515Y-17587936D02*
X9808515Y-17606984D01*
X9941848Y-17406984D02*
X9960896Y-17406984D01*
X9960896Y-17406984D02*
X9979944Y-17416508D01*
X9979944Y-17416508D02*
X9989468Y-17426031D01*
X9989468Y-17426031D02*
X9998991Y-17445079D01*
X9998991Y-17445079D02*
X10008515Y-17483174D01*
X10008515Y-17483174D02*
X10008515Y-17530793D01*
X10008515Y-17530793D02*
X9998991Y-17568889D01*
X9998991Y-17568889D02*
X9989468Y-17587936D01*
X9989468Y-17587936D02*
X9979944Y-17597460D01*
X9979944Y-17597460D02*
X9960896Y-17606984D01*
X9960896Y-17606984D02*
X9941848Y-17606984D01*
X9941848Y-17606984D02*
X9922801Y-17597460D01*
X9922801Y-17597460D02*
X9913277Y-17587936D01*
X9913277Y-17587936D02*
X9903753Y-17568889D01*
X9903753Y-17568889D02*
X9894229Y-17530793D01*
X9894229Y-17530793D02*
X9894229Y-17483174D01*
X9894229Y-17483174D02*
X9903753Y-17445079D01*
X9903753Y-17445079D02*
X9913277Y-17426031D01*
X9913277Y-17426031D02*
X9922801Y-17416508D01*
X9922801Y-17416508D02*
X9941848Y-17406984D01*
X10179944Y-17473650D02*
X10179944Y-17606984D01*
X10132325Y-17397460D02*
X10084706Y-17540317D01*
X10084706Y-17540317D02*
X10208515Y-17540317D01*
X10265658Y-17406984D02*
X10398991Y-17406984D01*
X10398991Y-17406984D02*
X10313277Y-17606984D01*
X10465658Y-17426031D02*
X10475182Y-17416508D01*
X10475182Y-17416508D02*
X10494229Y-17406984D01*
X10494229Y-17406984D02*
X10541849Y-17406984D01*
X10541849Y-17406984D02*
X10560896Y-17416508D01*
X10560896Y-17416508D02*
X10570420Y-17426031D01*
X10570420Y-17426031D02*
X10579944Y-17445079D01*
X10579944Y-17445079D02*
X10579944Y-17464127D01*
X10579944Y-17464127D02*
X10570420Y-17492698D01*
X10570420Y-17492698D02*
X10456134Y-17606984D01*
X10456134Y-17606984D02*
X10579944Y-17606984D01*
X10656134Y-17406984D02*
X10656134Y-17445079D01*
X10732325Y-17406984D02*
X10732325Y-17445079D01*
X11027563Y-17683174D02*
X11018039Y-17673650D01*
X11018039Y-17673650D02*
X10998991Y-17645079D01*
X10998991Y-17645079D02*
X10989468Y-17626031D01*
X10989468Y-17626031D02*
X10979944Y-17597460D01*
X10979944Y-17597460D02*
X10970420Y-17549841D01*
X10970420Y-17549841D02*
X10970420Y-17511746D01*
X10970420Y-17511746D02*
X10979944Y-17464127D01*
X10979944Y-17464127D02*
X10989468Y-17435555D01*
X10989468Y-17435555D02*
X10998991Y-17416508D01*
X10998991Y-17416508D02*
X11018039Y-17387936D01*
X11018039Y-17387936D02*
X11027563Y-17378412D01*
X11094230Y-17426031D02*
X11103753Y-17416508D01*
X11103753Y-17416508D02*
X11122801Y-17406984D01*
X11122801Y-17406984D02*
X11170420Y-17406984D01*
X11170420Y-17406984D02*
X11189468Y-17416508D01*
X11189468Y-17416508D02*
X11198991Y-17426031D01*
X11198991Y-17426031D02*
X11208515Y-17445079D01*
X11208515Y-17445079D02*
X11208515Y-17464127D01*
X11208515Y-17464127D02*
X11198991Y-17492698D01*
X11198991Y-17492698D02*
X11084706Y-17606984D01*
X11084706Y-17606984D02*
X11208515Y-17606984D01*
X11332325Y-17406984D02*
X11351372Y-17406984D01*
X11351372Y-17406984D02*
X11370420Y-17416508D01*
X11370420Y-17416508D02*
X11379944Y-17426031D01*
X11379944Y-17426031D02*
X11389468Y-17445079D01*
X11389468Y-17445079D02*
X11398991Y-17483174D01*
X11398991Y-17483174D02*
X11398991Y-17530793D01*
X11398991Y-17530793D02*
X11389468Y-17568889D01*
X11389468Y-17568889D02*
X11379944Y-17587936D01*
X11379944Y-17587936D02*
X11370420Y-17597460D01*
X11370420Y-17597460D02*
X11351372Y-17606984D01*
X11351372Y-17606984D02*
X11332325Y-17606984D01*
X11332325Y-17606984D02*
X11313277Y-17597460D01*
X11313277Y-17597460D02*
X11303753Y-17587936D01*
X11303753Y-17587936D02*
X11294229Y-17568889D01*
X11294229Y-17568889D02*
X11284706Y-17530793D01*
X11284706Y-17530793D02*
X11284706Y-17483174D01*
X11284706Y-17483174D02*
X11294229Y-17445079D01*
X11294229Y-17445079D02*
X11303753Y-17426031D01*
X11303753Y-17426031D02*
X11313277Y-17416508D01*
X11313277Y-17416508D02*
X11332325Y-17406984D01*
X11637087Y-17606984D02*
X11637087Y-17406984D01*
X11722801Y-17606984D02*
X11722801Y-17502222D01*
X11722801Y-17502222D02*
X11713277Y-17483174D01*
X11713277Y-17483174D02*
X11694230Y-17473650D01*
X11694230Y-17473650D02*
X11665658Y-17473650D01*
X11665658Y-17473650D02*
X11646610Y-17483174D01*
X11646610Y-17483174D02*
X11637087Y-17492698D01*
X11846610Y-17606984D02*
X11827563Y-17597460D01*
X11827563Y-17597460D02*
X11818039Y-17587936D01*
X11818039Y-17587936D02*
X11808515Y-17568889D01*
X11808515Y-17568889D02*
X11808515Y-17511746D01*
X11808515Y-17511746D02*
X11818039Y-17492698D01*
X11818039Y-17492698D02*
X11827563Y-17483174D01*
X11827563Y-17483174D02*
X11846610Y-17473650D01*
X11846610Y-17473650D02*
X11875182Y-17473650D01*
X11875182Y-17473650D02*
X11894230Y-17483174D01*
X11894230Y-17483174D02*
X11903753Y-17492698D01*
X11903753Y-17492698D02*
X11913277Y-17511746D01*
X11913277Y-17511746D02*
X11913277Y-17568889D01*
X11913277Y-17568889D02*
X11903753Y-17587936D01*
X11903753Y-17587936D02*
X11894230Y-17597460D01*
X11894230Y-17597460D02*
X11875182Y-17606984D01*
X11875182Y-17606984D02*
X11846610Y-17606984D01*
X12027563Y-17606984D02*
X12008515Y-17597460D01*
X12008515Y-17597460D02*
X11998991Y-17578412D01*
X11998991Y-17578412D02*
X11998991Y-17406984D01*
X12179944Y-17597460D02*
X12160896Y-17606984D01*
X12160896Y-17606984D02*
X12122801Y-17606984D01*
X12122801Y-17606984D02*
X12103753Y-17597460D01*
X12103753Y-17597460D02*
X12094230Y-17578412D01*
X12094230Y-17578412D02*
X12094230Y-17502222D01*
X12094230Y-17502222D02*
X12103753Y-17483174D01*
X12103753Y-17483174D02*
X12122801Y-17473650D01*
X12122801Y-17473650D02*
X12160896Y-17473650D01*
X12160896Y-17473650D02*
X12179944Y-17483174D01*
X12179944Y-17483174D02*
X12189468Y-17502222D01*
X12189468Y-17502222D02*
X12189468Y-17521270D01*
X12189468Y-17521270D02*
X12094230Y-17540317D01*
X12265658Y-17597460D02*
X12284706Y-17606984D01*
X12284706Y-17606984D02*
X12322801Y-17606984D01*
X12322801Y-17606984D02*
X12341849Y-17597460D01*
X12341849Y-17597460D02*
X12351372Y-17578412D01*
X12351372Y-17578412D02*
X12351372Y-17568889D01*
X12351372Y-17568889D02*
X12341849Y-17549841D01*
X12341849Y-17549841D02*
X12322801Y-17540317D01*
X12322801Y-17540317D02*
X12294230Y-17540317D01*
X12294230Y-17540317D02*
X12275182Y-17530793D01*
X12275182Y-17530793D02*
X12265658Y-17511746D01*
X12265658Y-17511746D02*
X12265658Y-17502222D01*
X12265658Y-17502222D02*
X12275182Y-17483174D01*
X12275182Y-17483174D02*
X12294230Y-17473650D01*
X12294230Y-17473650D02*
X12322801Y-17473650D01*
X12322801Y-17473650D02*
X12341849Y-17483174D01*
X12418039Y-17683174D02*
X12427563Y-17673650D01*
X12427563Y-17673650D02*
X12446611Y-17645079D01*
X12446611Y-17645079D02*
X12456134Y-17626031D01*
X12456134Y-17626031D02*
X12465658Y-17597460D01*
X12465658Y-17597460D02*
X12475182Y-17549841D01*
X12475182Y-17549841D02*
X12475182Y-17511746D01*
X12475182Y-17511746D02*
X12465658Y-17464127D01*
X12465658Y-17464127D02*
X12456134Y-17435555D01*
X12456134Y-17435555D02*
X12446611Y-17416508D01*
X12446611Y-17416508D02*
X12427563Y-17387936D01*
X12427563Y-17387936D02*
X12418039Y-17378412D01*
X7352500Y-17679500D02*
X7352500Y-17879500D01*
X7252500Y-17779500D02*
X7452500Y-17779500D01*
X7703753Y-17690031D02*
X7713277Y-17680508D01*
X7713277Y-17680508D02*
X7732324Y-17670984D01*
X7732324Y-17670984D02*
X7779943Y-17670984D01*
X7779943Y-17670984D02*
X7798991Y-17680508D01*
X7798991Y-17680508D02*
X7808515Y-17690031D01*
X7808515Y-17690031D02*
X7818039Y-17709079D01*
X7818039Y-17709079D02*
X7818039Y-17728127D01*
X7818039Y-17728127D02*
X7808515Y-17756698D01*
X7808515Y-17756698D02*
X7694229Y-17870984D01*
X7694229Y-17870984D02*
X7818039Y-17870984D01*
X7903753Y-17851936D02*
X7913277Y-17861460D01*
X7913277Y-17861460D02*
X7903753Y-17870984D01*
X7903753Y-17870984D02*
X7894229Y-17861460D01*
X7894229Y-17861460D02*
X7903753Y-17851936D01*
X7903753Y-17851936D02*
X7903753Y-17870984D01*
X7979943Y-17670984D02*
X8113277Y-17670984D01*
X8113277Y-17670984D02*
X8027562Y-17870984D01*
X8227562Y-17670984D02*
X8246610Y-17670984D01*
X8246610Y-17670984D02*
X8265658Y-17680508D01*
X8265658Y-17680508D02*
X8275182Y-17690031D01*
X8275182Y-17690031D02*
X8284705Y-17709079D01*
X8284705Y-17709079D02*
X8294229Y-17747174D01*
X8294229Y-17747174D02*
X8294229Y-17794793D01*
X8294229Y-17794793D02*
X8284705Y-17832889D01*
X8284705Y-17832889D02*
X8275182Y-17851936D01*
X8275182Y-17851936D02*
X8265658Y-17861460D01*
X8265658Y-17861460D02*
X8246610Y-17870984D01*
X8246610Y-17870984D02*
X8227562Y-17870984D01*
X8227562Y-17870984D02*
X8208515Y-17861460D01*
X8208515Y-17861460D02*
X8198991Y-17851936D01*
X8198991Y-17851936D02*
X8189467Y-17832889D01*
X8189467Y-17832889D02*
X8179943Y-17794793D01*
X8179943Y-17794793D02*
X8179943Y-17747174D01*
X8179943Y-17747174D02*
X8189467Y-17709079D01*
X8189467Y-17709079D02*
X8198991Y-17690031D01*
X8198991Y-17690031D02*
X8208515Y-17680508D01*
X8208515Y-17680508D02*
X8227562Y-17670984D01*
X8418039Y-17670984D02*
X8437086Y-17670984D01*
X8437086Y-17670984D02*
X8456134Y-17680508D01*
X8456134Y-17680508D02*
X8465658Y-17690031D01*
X8465658Y-17690031D02*
X8475182Y-17709079D01*
X8475182Y-17709079D02*
X8484705Y-17747174D01*
X8484705Y-17747174D02*
X8484705Y-17794793D01*
X8484705Y-17794793D02*
X8475182Y-17832889D01*
X8475182Y-17832889D02*
X8465658Y-17851936D01*
X8465658Y-17851936D02*
X8456134Y-17861460D01*
X8456134Y-17861460D02*
X8437086Y-17870984D01*
X8437086Y-17870984D02*
X8418039Y-17870984D01*
X8418039Y-17870984D02*
X8398991Y-17861460D01*
X8398991Y-17861460D02*
X8389467Y-17851936D01*
X8389467Y-17851936D02*
X8379943Y-17832889D01*
X8379943Y-17832889D02*
X8370420Y-17794793D01*
X8370420Y-17794793D02*
X8370420Y-17747174D01*
X8370420Y-17747174D02*
X8379943Y-17709079D01*
X8379943Y-17709079D02*
X8389467Y-17690031D01*
X8389467Y-17690031D02*
X8398991Y-17680508D01*
X8398991Y-17680508D02*
X8418039Y-17670984D01*
X8570420Y-17870984D02*
X8570420Y-17737650D01*
X8570420Y-17756698D02*
X8579944Y-17747174D01*
X8579944Y-17747174D02*
X8598991Y-17737650D01*
X8598991Y-17737650D02*
X8627563Y-17737650D01*
X8627563Y-17737650D02*
X8646610Y-17747174D01*
X8646610Y-17747174D02*
X8656134Y-17766222D01*
X8656134Y-17766222D02*
X8656134Y-17870984D01*
X8656134Y-17766222D02*
X8665658Y-17747174D01*
X8665658Y-17747174D02*
X8684705Y-17737650D01*
X8684705Y-17737650D02*
X8713277Y-17737650D01*
X8713277Y-17737650D02*
X8732325Y-17747174D01*
X8732325Y-17747174D02*
X8741848Y-17766222D01*
X8741848Y-17766222D02*
X8741848Y-17870984D01*
X8837086Y-17870984D02*
X8837086Y-17737650D01*
X8837086Y-17756698D02*
X8846610Y-17747174D01*
X8846610Y-17747174D02*
X8865658Y-17737650D01*
X8865658Y-17737650D02*
X8894229Y-17737650D01*
X8894229Y-17737650D02*
X8913277Y-17747174D01*
X8913277Y-17747174D02*
X8922801Y-17766222D01*
X8922801Y-17766222D02*
X8922801Y-17870984D01*
X8922801Y-17766222D02*
X8932325Y-17747174D01*
X8932325Y-17747174D02*
X8951372Y-17737650D01*
X8951372Y-17737650D02*
X8979944Y-17737650D01*
X8979944Y-17737650D02*
X8998991Y-17747174D01*
X8998991Y-17747174D02*
X9008515Y-17766222D01*
X9008515Y-17766222D02*
X9008515Y-17870984D01*
X9398991Y-17661460D02*
X9227563Y-17918603D01*
X9656134Y-17670984D02*
X9675182Y-17670984D01*
X9675182Y-17670984D02*
X9694229Y-17680508D01*
X9694229Y-17680508D02*
X9703753Y-17690031D01*
X9703753Y-17690031D02*
X9713277Y-17709079D01*
X9713277Y-17709079D02*
X9722801Y-17747174D01*
X9722801Y-17747174D02*
X9722801Y-17794793D01*
X9722801Y-17794793D02*
X9713277Y-17832889D01*
X9713277Y-17832889D02*
X9703753Y-17851936D01*
X9703753Y-17851936D02*
X9694229Y-17861460D01*
X9694229Y-17861460D02*
X9675182Y-17870984D01*
X9675182Y-17870984D02*
X9656134Y-17870984D01*
X9656134Y-17870984D02*
X9637087Y-17861460D01*
X9637087Y-17861460D02*
X9627563Y-17851936D01*
X9627563Y-17851936D02*
X9618039Y-17832889D01*
X9618039Y-17832889D02*
X9608515Y-17794793D01*
X9608515Y-17794793D02*
X9608515Y-17747174D01*
X9608515Y-17747174D02*
X9618039Y-17709079D01*
X9618039Y-17709079D02*
X9627563Y-17690031D01*
X9627563Y-17690031D02*
X9637087Y-17680508D01*
X9637087Y-17680508D02*
X9656134Y-17670984D01*
X9808515Y-17851936D02*
X9818039Y-17861460D01*
X9818039Y-17861460D02*
X9808515Y-17870984D01*
X9808515Y-17870984D02*
X9798991Y-17861460D01*
X9798991Y-17861460D02*
X9808515Y-17851936D01*
X9808515Y-17851936D02*
X9808515Y-17870984D01*
X10008515Y-17870984D02*
X9894229Y-17870984D01*
X9951372Y-17870984D02*
X9951372Y-17670984D01*
X9951372Y-17670984D02*
X9932325Y-17699555D01*
X9932325Y-17699555D02*
X9913277Y-17718603D01*
X9913277Y-17718603D02*
X9894229Y-17728127D01*
X10132325Y-17670984D02*
X10151372Y-17670984D01*
X10151372Y-17670984D02*
X10170420Y-17680508D01*
X10170420Y-17680508D02*
X10179944Y-17690031D01*
X10179944Y-17690031D02*
X10189468Y-17709079D01*
X10189468Y-17709079D02*
X10198991Y-17747174D01*
X10198991Y-17747174D02*
X10198991Y-17794793D01*
X10198991Y-17794793D02*
X10189468Y-17832889D01*
X10189468Y-17832889D02*
X10179944Y-17851936D01*
X10179944Y-17851936D02*
X10170420Y-17861460D01*
X10170420Y-17861460D02*
X10151372Y-17870984D01*
X10151372Y-17870984D02*
X10132325Y-17870984D01*
X10132325Y-17870984D02*
X10113277Y-17861460D01*
X10113277Y-17861460D02*
X10103753Y-17851936D01*
X10103753Y-17851936D02*
X10094229Y-17832889D01*
X10094229Y-17832889D02*
X10084706Y-17794793D01*
X10084706Y-17794793D02*
X10084706Y-17747174D01*
X10084706Y-17747174D02*
X10094229Y-17709079D01*
X10094229Y-17709079D02*
X10103753Y-17690031D01*
X10103753Y-17690031D02*
X10113277Y-17680508D01*
X10113277Y-17680508D02*
X10132325Y-17670984D01*
X10370420Y-17670984D02*
X10332325Y-17670984D01*
X10332325Y-17670984D02*
X10313277Y-17680508D01*
X10313277Y-17680508D02*
X10303753Y-17690031D01*
X10303753Y-17690031D02*
X10284706Y-17718603D01*
X10284706Y-17718603D02*
X10275182Y-17756698D01*
X10275182Y-17756698D02*
X10275182Y-17832889D01*
X10275182Y-17832889D02*
X10284706Y-17851936D01*
X10284706Y-17851936D02*
X10294229Y-17861460D01*
X10294229Y-17861460D02*
X10313277Y-17870984D01*
X10313277Y-17870984D02*
X10351372Y-17870984D01*
X10351372Y-17870984D02*
X10370420Y-17861460D01*
X10370420Y-17861460D02*
X10379944Y-17851936D01*
X10379944Y-17851936D02*
X10389468Y-17832889D01*
X10389468Y-17832889D02*
X10389468Y-17785270D01*
X10389468Y-17785270D02*
X10379944Y-17766222D01*
X10379944Y-17766222D02*
X10370420Y-17756698D01*
X10370420Y-17756698D02*
X10351372Y-17747174D01*
X10351372Y-17747174D02*
X10313277Y-17747174D01*
X10313277Y-17747174D02*
X10294229Y-17756698D01*
X10294229Y-17756698D02*
X10284706Y-17766222D01*
X10284706Y-17766222D02*
X10275182Y-17785270D01*
X10456134Y-17670984D02*
X10579944Y-17670984D01*
X10579944Y-17670984D02*
X10513277Y-17747174D01*
X10513277Y-17747174D02*
X10541849Y-17747174D01*
X10541849Y-17747174D02*
X10560896Y-17756698D01*
X10560896Y-17756698D02*
X10570420Y-17766222D01*
X10570420Y-17766222D02*
X10579944Y-17785270D01*
X10579944Y-17785270D02*
X10579944Y-17832889D01*
X10579944Y-17832889D02*
X10570420Y-17851936D01*
X10570420Y-17851936D02*
X10560896Y-17861460D01*
X10560896Y-17861460D02*
X10541849Y-17870984D01*
X10541849Y-17870984D02*
X10484706Y-17870984D01*
X10484706Y-17870984D02*
X10465658Y-17861460D01*
X10465658Y-17861460D02*
X10456134Y-17851936D01*
X10656134Y-17670984D02*
X10656134Y-17709079D01*
X10732325Y-17670984D02*
X10732325Y-17709079D01*
X11027563Y-17947174D02*
X11018039Y-17937650D01*
X11018039Y-17937650D02*
X10998991Y-17909079D01*
X10998991Y-17909079D02*
X10989468Y-17890031D01*
X10989468Y-17890031D02*
X10979944Y-17861460D01*
X10979944Y-17861460D02*
X10970420Y-17813841D01*
X10970420Y-17813841D02*
X10970420Y-17775746D01*
X10970420Y-17775746D02*
X10979944Y-17728127D01*
X10979944Y-17728127D02*
X10989468Y-17699555D01*
X10989468Y-17699555D02*
X10998991Y-17680508D01*
X10998991Y-17680508D02*
X11018039Y-17651936D01*
X11018039Y-17651936D02*
X11027563Y-17642412D01*
X11189468Y-17737650D02*
X11189468Y-17870984D01*
X11141849Y-17661460D02*
X11094230Y-17804317D01*
X11094230Y-17804317D02*
X11218039Y-17804317D01*
X11446610Y-17870984D02*
X11446610Y-17670984D01*
X11532325Y-17870984D02*
X11532325Y-17766222D01*
X11532325Y-17766222D02*
X11522801Y-17747174D01*
X11522801Y-17747174D02*
X11503753Y-17737650D01*
X11503753Y-17737650D02*
X11475182Y-17737650D01*
X11475182Y-17737650D02*
X11456134Y-17747174D01*
X11456134Y-17747174D02*
X11446610Y-17756698D01*
X11656134Y-17870984D02*
X11637087Y-17861460D01*
X11637087Y-17861460D02*
X11627563Y-17851936D01*
X11627563Y-17851936D02*
X11618039Y-17832889D01*
X11618039Y-17832889D02*
X11618039Y-17775746D01*
X11618039Y-17775746D02*
X11627563Y-17756698D01*
X11627563Y-17756698D02*
X11637087Y-17747174D01*
X11637087Y-17747174D02*
X11656134Y-17737650D01*
X11656134Y-17737650D02*
X11684706Y-17737650D01*
X11684706Y-17737650D02*
X11703753Y-17747174D01*
X11703753Y-17747174D02*
X11713277Y-17756698D01*
X11713277Y-17756698D02*
X11722801Y-17775746D01*
X11722801Y-17775746D02*
X11722801Y-17832889D01*
X11722801Y-17832889D02*
X11713277Y-17851936D01*
X11713277Y-17851936D02*
X11703753Y-17861460D01*
X11703753Y-17861460D02*
X11684706Y-17870984D01*
X11684706Y-17870984D02*
X11656134Y-17870984D01*
X11837087Y-17870984D02*
X11818039Y-17861460D01*
X11818039Y-17861460D02*
X11808515Y-17842412D01*
X11808515Y-17842412D02*
X11808515Y-17670984D01*
X11989468Y-17861460D02*
X11970420Y-17870984D01*
X11970420Y-17870984D02*
X11932325Y-17870984D01*
X11932325Y-17870984D02*
X11913277Y-17861460D01*
X11913277Y-17861460D02*
X11903753Y-17842412D01*
X11903753Y-17842412D02*
X11903753Y-17766222D01*
X11903753Y-17766222D02*
X11913277Y-17747174D01*
X11913277Y-17747174D02*
X11932325Y-17737650D01*
X11932325Y-17737650D02*
X11970420Y-17737650D01*
X11970420Y-17737650D02*
X11989468Y-17747174D01*
X11989468Y-17747174D02*
X11998991Y-17766222D01*
X11998991Y-17766222D02*
X11998991Y-17785270D01*
X11998991Y-17785270D02*
X11903753Y-17804317D01*
X12075182Y-17861460D02*
X12094230Y-17870984D01*
X12094230Y-17870984D02*
X12132325Y-17870984D01*
X12132325Y-17870984D02*
X12151372Y-17861460D01*
X12151372Y-17861460D02*
X12160896Y-17842412D01*
X12160896Y-17842412D02*
X12160896Y-17832889D01*
X12160896Y-17832889D02*
X12151372Y-17813841D01*
X12151372Y-17813841D02*
X12132325Y-17804317D01*
X12132325Y-17804317D02*
X12103753Y-17804317D01*
X12103753Y-17804317D02*
X12084706Y-17794793D01*
X12084706Y-17794793D02*
X12075182Y-17775746D01*
X12075182Y-17775746D02*
X12075182Y-17766222D01*
X12075182Y-17766222D02*
X12084706Y-17747174D01*
X12084706Y-17747174D02*
X12103753Y-17737650D01*
X12103753Y-17737650D02*
X12132325Y-17737650D01*
X12132325Y-17737650D02*
X12151372Y-17747174D01*
X12227563Y-17947174D02*
X12237087Y-17937650D01*
X12237087Y-17937650D02*
X12256134Y-17909079D01*
X12256134Y-17909079D02*
X12265658Y-17890031D01*
X12265658Y-17890031D02*
X12275182Y-17861460D01*
X12275182Y-17861460D02*
X12284706Y-17813841D01*
X12284706Y-17813841D02*
X12284706Y-17775746D01*
X12284706Y-17775746D02*
X12275182Y-17728127D01*
X12275182Y-17728127D02*
X12265658Y-17699555D01*
X12265658Y-17699555D02*
X12256134Y-17680508D01*
X12256134Y-17680508D02*
X12237087Y-17651936D01*
X12237087Y-17651936D02*
X12227563Y-17642412D01*
M02*
